<?xml version="1.0" encoding="utf-8" standalone="no"?>
<!DOCTYPE svg PUBLIC "-//W3C//DTD SVG 1.1//EN"
  "http://www.w3.org/Graphics/SVG/1.1/DTD/svg11.dtd">
<svg xmlns:xlink="http://www.w3.org/1999/xlink" width="612pt" height="374.4pt" viewBox="0 0 612 374.4" xmlns="http://www.w3.org/2000/svg" version="1.1">
 <metadata>
  <rdf:RDF xmlns:dc="http://purl.org/dc/elements/1.1/" xmlns:cc="http://creativecommons.org/ns#" xmlns:rdf="http://www.w3.org/1999/02/22-rdf-syntax-ns#">
   <cc:Work>
    <dc:type rdf:resource="http://purl.org/dc/dcmitype/StillImage"/>
    <dc:date>2026-06-21T06:43:00.920892</dc:date>
    <dc:format>image/svg+xml</dc:format>
    <dc:creator>
     <cc:Agent>
      <dc:title>Matplotlib v3.11.0, https://matplotlib.org/</dc:title>
     </cc:Agent>
    </dc:creator>
   </cc:Work>
  </rdf:RDF>
 </metadata>
 <defs>
  <style type="text/css">*{stroke-linejoin: round; stroke-linecap: butt}</style>
 </defs>
 <g id="figure_1">
  <g id="patch_1">
   <path d="M 0 374.4 
L 612 374.4 
L 612 0 
L 0 0 
z
" style="fill: #0b1220"/>
  </g>
  <g id="axes_1">
   <g id="patch_2">
    <path d="M 73.44 321.984 
L 581.4 321.984 
L 581.4 74.88 
L 73.44 74.88 
z
" style="fill: #0f1a2e"/>
   </g>
   <g id="matplotlib.axis_1">
    <g id="xtick_1">
     <g id="line2d_1"/>
     <g id="text_1">
      <!-- Nearest-car -->
      <g style="fill: #8aa0bd" transform="translate(119.213952 334.512564) scale(0.105 -0.105)">
       <defs>
        <path id="DejaVuSans-31" d="M 628 4666 
L 1478 4666 
L 3547 763 
L 3547 4666 
L 4159 4666 
L 4159 0 
L 3309 0 
L 1241 3903 
L 1241 0 
L 628 0 
L 628 4666 
z
" transform="scale(0.015625)"/>
        <path id="DejaVuSans-48" d="M 3597 1894 
L 3597 1613 
L 953 1613 
Q 991 1019 1311 708 
Q 1631 397 2203 397 
Q 2534 397 2845 478 
Q 3156 559 3463 722 
L 3463 178 
Q 3153 47 2828 -22 
Q 2503 -91 2169 -91 
Q 1331 -91 842 396 
Q 353 884 353 1716 
Q 353 2575 817 3079 
Q 1281 3584 2069 3584 
Q 2775 3584 3186 3129 
Q 3597 2675 3597 1894 
z
M 3022 2063 
Q 3016 2534 2758 2815 
Q 2500 3097 2075 3097 
Q 1594 3097 1305 2825 
Q 1016 2553 972 2059 
L 3022 2063 
z
" transform="scale(0.015625)"/>
        <path id="DejaVuSans-44" d="M 2194 1759 
Q 1497 1759 1228 1600 
Q 959 1441 959 1056 
Q 959 750 1161 570 
Q 1363 391 1709 391 
Q 2188 391 2477 730 
Q 2766 1069 2766 1631 
L 2766 1759 
L 2194 1759 
z
M 3341 1997 
L 3341 0 
L 2766 0 
L 2766 531 
Q 2569 213 2275 61 
Q 1981 -91 1556 -91 
Q 1019 -91 701 211 
Q 384 513 384 1019 
Q 384 1609 779 1909 
Q 1175 2209 1959 2209 
L 2766 2209 
L 2766 2266 
Q 2766 2663 2505 2880 
Q 2244 3097 1772 3097 
Q 1472 3097 1187 3025 
Q 903 2953 641 2809 
L 641 3341 
Q 956 3463 1253 3523 
Q 1550 3584 1831 3584 
Q 2591 3584 2966 3190 
Q 3341 2797 3341 1997 
z
" transform="scale(0.015625)"/>
        <path id="DejaVuSans-55" d="M 2631 2963 
Q 2534 3019 2420 3045 
Q 2306 3072 2169 3072 
Q 1681 3072 1420 2755 
Q 1159 2438 1159 1844 
L 1159 0 
L 581 0 
L 581 3500 
L 1159 3500 
L 1159 2956 
Q 1341 3275 1631 3429 
Q 1922 3584 2338 3584 
Q 2397 3584 2469 3576 
Q 2541 3569 2628 3553 
L 2631 2963 
z
" transform="scale(0.015625)"/>
        <path id="DejaVuSans-56" d="M 2834 3397 
L 2834 2853 
Q 2591 2978 2328 3040 
Q 2066 3103 1784 3103 
Q 1356 3103 1142 2972 
Q 928 2841 928 2578 
Q 928 2378 1081 2264 
Q 1234 2150 1697 2047 
L 1894 2003 
Q 2506 1872 2764 1633 
Q 3022 1394 3022 966 
Q 3022 478 2636 193 
Q 2250 -91 1575 -91 
Q 1294 -91 989 -36 
Q 684 19 347 128 
L 347 722 
Q 666 556 975 473 
Q 1284 391 1588 391 
Q 1994 391 2212 530 
Q 2431 669 2431 922 
Q 2431 1156 2273 1281 
Q 2116 1406 1581 1522 
L 1381 1569 
Q 847 1681 609 1914 
Q 372 2147 372 2553 
Q 372 3047 722 3315 
Q 1072 3584 1716 3584 
Q 2034 3584 2315 3537 
Q 2597 3491 2834 3397 
z
" transform="scale(0.015625)"/>
        <path id="DejaVuSans-57" d="M 1172 4494 
L 1172 3500 
L 2356 3500 
L 2356 3053 
L 1172 3053 
L 1172 1153 
Q 1172 725 1289 603 
Q 1406 481 1766 481 
L 2356 481 
L 2356 0 
L 1766 0 
Q 1100 0 847 248 
Q 594 497 594 1153 
L 594 3053 
L 172 3053 
L 172 3500 
L 594 3500 
L 594 4494 
L 1172 4494 
z
" transform="scale(0.015625)"/>
        <path id="DejaVuSans-10" d="M 313 2009 
L 1997 2009 
L 1997 1497 
L 313 1497 
L 313 2009 
z
" transform="scale(0.015625)"/>
        <path id="DejaVuSans-46" d="M 3122 3366 
L 3122 2828 
Q 2878 2963 2633 3030 
Q 2388 3097 2138 3097 
Q 1578 3097 1268 2742 
Q 959 2388 959 1747 
Q 959 1106 1268 751 
Q 1578 397 2138 397 
Q 2388 397 2633 464 
Q 2878 531 3122 666 
L 3122 134 
Q 2881 22 2623 -34 
Q 2366 -91 2075 -91 
Q 1284 -91 818 406 
Q 353 903 353 1747 
Q 353 2603 823 3093 
Q 1294 3584 2113 3584 
Q 2378 3584 2631 3529 
Q 2884 3475 3122 3366 
z
" transform="scale(0.015625)"/>
       </defs>
       <use xlink:href="#DejaVuSans-31"/>
       <use xlink:href="#DejaVuSans-48" transform="translate(74.8125 0)"/>
       <use xlink:href="#DejaVuSans-44" transform="translate(136.34375 0)"/>
       <use xlink:href="#DejaVuSans-55" transform="translate(197.625 0)"/>
       <use xlink:href="#DejaVuSans-48" transform="translate(236.53125 0)"/>
       <use xlink:href="#DejaVuSans-56" transform="translate(298.0625 0)"/>
       <use xlink:href="#DejaVuSans-57" transform="translate(350.15625 0)"/>
       <use xlink:href="#DejaVuSans-10" transform="translate(389.359375 0)"/>
       <use xlink:href="#DejaVuSans-46" transform="translate(425.4375 0)"/>
       <use xlink:href="#DejaVuSans-44" transform="translate(480.421875 0)"/>
       <use xlink:href="#DejaVuSans-55" transform="translate(541.703125 0)"/>
      </g>
      <!-- baseline -->
      <g style="fill: #8aa0bd" transform="translate(127.821491 347.115436) scale(0.105 -0.105)">
       <defs>
        <path id="DejaVuSans-45" d="M 3116 1747 
Q 3116 2381 2855 2742 
Q 2594 3103 2138 3103 
Q 1681 3103 1420 2742 
Q 1159 2381 1159 1747 
Q 1159 1113 1420 752 
Q 1681 391 2138 391 
Q 2594 391 2855 752 
Q 3116 1113 3116 1747 
z
M 1159 2969 
Q 1341 3281 1617 3432 
Q 1894 3584 2278 3584 
Q 2916 3584 3314 3078 
Q 3713 2572 3713 1747 
Q 3713 922 3314 415 
Q 2916 -91 2278 -91 
Q 1894 -91 1617 61 
Q 1341 213 1159 525 
L 1159 0 
L 581 0 
L 581 4863 
L 1159 4863 
L 1159 2969 
z
" transform="scale(0.015625)"/>
        <path id="DejaVuSans-4f" d="M 603 4863 
L 1178 4863 
L 1178 0 
L 603 0 
L 603 4863 
z
" transform="scale(0.015625)"/>
        <path id="DejaVuSans-4c" d="M 603 3500 
L 1178 3500 
L 1178 0 
L 603 0 
L 603 3500 
z
M 603 4863 
L 1178 4863 
L 1178 4134 
L 603 4134 
L 603 4863 
z
" transform="scale(0.015625)"/>
        <path id="DejaVuSans-51" d="M 3513 2113 
L 3513 0 
L 2938 0 
L 2938 2094 
Q 2938 2591 2744 2837 
Q 2550 3084 2163 3084 
Q 1697 3084 1428 2787 
Q 1159 2491 1159 1978 
L 1159 0 
L 581 0 
L 581 3500 
L 1159 3500 
L 1159 2956 
Q 1366 3272 1645 3428 
Q 1925 3584 2291 3584 
Q 2894 3584 3203 3211 
Q 3513 2838 3513 2113 
z
" transform="scale(0.015625)"/>
       </defs>
       <use xlink:href="#DejaVuSans-45"/>
       <use xlink:href="#DejaVuSans-44" transform="translate(63.484375 0)"/>
       <use xlink:href="#DejaVuSans-56" transform="translate(124.765625 0)"/>
       <use xlink:href="#DejaVuSans-48" transform="translate(176.859375 0)"/>
       <use xlink:href="#DejaVuSans-4f" transform="translate(238.390625 0)"/>
       <use xlink:href="#DejaVuSans-4c" transform="translate(266.171875 0)"/>
       <use xlink:href="#DejaVuSans-51" transform="translate(293.953125 0)"/>
       <use xlink:href="#DejaVuSans-48" transform="translate(357.328125 0)"/>
      </g>
     </g>
    </g>
    <g id="xtick_2">
     <g id="line2d_2"/>
     <g id="text_2">
      <!-- Value-aware -->
      <g style="fill: #8aa0bd" transform="translate(295.107891 334.513385) scale(0.105 -0.105)">
       <defs>
        <path id="DejaVuSans-39" d="M 1831 0 
L 50 4666 
L 709 4666 
L 2188 738 
L 3669 4666 
L 4325 4666 
L 2547 0 
L 1831 0 
z
" transform="scale(0.015625)"/>
        <path id="DejaVuSans-58" d="M 544 1381 
L 544 3500 
L 1119 3500 
L 1119 1403 
Q 1119 906 1312 657 
Q 1506 409 1894 409 
Q 2359 409 2629 706 
Q 2900 1003 2900 1516 
L 2900 3500 
L 3475 3500 
L 3475 0 
L 2900 0 
L 2900 538 
Q 2691 219 2414 64 
Q 2138 -91 1772 -91 
Q 1169 -91 856 284 
Q 544 659 544 1381 
z
M 1991 3584 
L 1991 3584 
z
" transform="scale(0.015625)"/>
        <path id="DejaVuSans-5a" d="M 269 3500 
L 844 3500 
L 1563 769 
L 2278 3500 
L 2956 3500 
L 3675 769 
L 4391 3500 
L 4966 3500 
L 4050 0 
L 3372 0 
L 2619 2869 
L 1863 0 
L 1184 0 
L 269 3500 
z
" transform="scale(0.015625)"/>
       </defs>
       <use xlink:href="#DejaVuSans-39"/>
       <use xlink:href="#DejaVuSans-44" transform="translate(60.640625 0)"/>
       <use xlink:href="#DejaVuSans-4f" transform="translate(121.921875 0)"/>
       <use xlink:href="#DejaVuSans-58" transform="translate(149.703125 0)"/>
       <use xlink:href="#DejaVuSans-48" transform="translate(213.078125 0)"/>
       <use xlink:href="#DejaVuSans-10" transform="translate(274.609375 0)"/>
       <use xlink:href="#DejaVuSans-44" transform="translate(310.6875 0)"/>
       <use xlink:href="#DejaVuSans-5a" transform="translate(371.96875 0)"/>
       <use xlink:href="#DejaVuSans-44" transform="translate(453.75 0)"/>
       <use xlink:href="#DejaVuSans-55" transform="translate(515.03125 0)"/>
       <use xlink:href="#DejaVuSans-48" transform="translate(553.9375 0)"/>
      </g>
      <!-- heuristic -->
      <g style="fill: #8aa0bd" transform="translate(304.780195 347.116256) scale(0.105 -0.105)">
       <defs>
        <path id="DejaVuSans-4b" d="M 3513 2113 
L 3513 0 
L 2938 0 
L 2938 2094 
Q 2938 2591 2744 2837 
Q 2550 3084 2163 3084 
Q 1697 3084 1428 2787 
Q 1159 2491 1159 1978 
L 1159 0 
L 581 0 
L 581 4863 
L 1159 4863 
L 1159 2956 
Q 1366 3272 1645 3428 
Q 1925 3584 2291 3584 
Q 2894 3584 3203 3211 
Q 3513 2838 3513 2113 
z
" transform="scale(0.015625)"/>
       </defs>
       <use xlink:href="#DejaVuSans-4b"/>
       <use xlink:href="#DejaVuSans-48" transform="translate(63.375 0)"/>
       <use xlink:href="#DejaVuSans-58" transform="translate(124.90625 0)"/>
       <use xlink:href="#DejaVuSans-55" transform="translate(188.28125 0)"/>
       <use xlink:href="#DejaVuSans-4c" transform="translate(229.390625 0)"/>
       <use xlink:href="#DejaVuSans-56" transform="translate(257.171875 0)"/>
       <use xlink:href="#DejaVuSans-57" transform="translate(309.265625 0)"/>
       <use xlink:href="#DejaVuSans-4c" transform="translate(348.46875 0)"/>
       <use xlink:href="#DejaVuSans-46" transform="translate(376.25 0)"/>
      </g>
     </g>
    </g>
    <g id="xtick_3">
     <g id="line2d_3"/>
     <g id="text_3">
      <!-- RL-trained -->
      <g style="fill: #8aa0bd" transform="translate(477.870306 334.513385) scale(0.105 -0.105)">
       <defs>
        <path id="DejaVuSans-35" d="M 2841 2188 
Q 3044 2119 3236 1894 
Q 3428 1669 3622 1275 
L 4263 0 
L 3584 0 
L 2988 1197 
Q 2756 1666 2539 1819 
Q 2322 1972 1947 1972 
L 1259 1972 
L 1259 0 
L 628 0 
L 628 4666 
L 2053 4666 
Q 2853 4666 3247 4331 
Q 3641 3997 3641 3322 
Q 3641 2881 3436 2590 
Q 3231 2300 2841 2188 
z
M 1259 4147 
L 1259 2491 
L 2053 2491 
Q 2509 2491 2742 2702 
Q 2975 2913 2975 3322 
Q 2975 3731 2742 3939 
Q 2509 4147 2053 4147 
L 1259 4147 
z
" transform="scale(0.015625)"/>
        <path id="DejaVuSans-2f" d="M 628 4666 
L 1259 4666 
L 1259 531 
L 3531 531 
L 3531 0 
L 628 0 
L 628 4666 
z
" transform="scale(0.015625)"/>
        <path id="DejaVuSans-47" d="M 2906 2969 
L 2906 4863 
L 3481 4863 
L 3481 0 
L 2906 0 
L 2906 525 
Q 2725 213 2448 61 
Q 2172 -91 1784 -91 
Q 1150 -91 751 415 
Q 353 922 353 1747 
Q 353 2572 751 3078 
Q 1150 3584 1784 3584 
Q 2172 3584 2448 3432 
Q 2725 3281 2906 2969 
z
M 947 1747 
Q 947 1113 1208 752 
Q 1469 391 1925 391 
Q 2381 391 2643 752 
Q 2906 1113 2906 1747 
Q 2906 2381 2643 2742 
Q 2381 3103 1925 3103 
Q 1469 3103 1208 2742 
Q 947 2381 947 1747 
z
" transform="scale(0.015625)"/>
       </defs>
       <use xlink:href="#DejaVuSans-35"/>
       <use xlink:href="#DejaVuSans-2f" transform="translate(69.484375 0)"/>
       <use xlink:href="#DejaVuSans-10" transform="translate(123.453125 0)"/>
       <use xlink:href="#DejaVuSans-57" transform="translate(159.53125 0)"/>
       <use xlink:href="#DejaVuSans-55" transform="translate(198.734375 0)"/>
       <use xlink:href="#DejaVuSans-44" transform="translate(239.84375 0)"/>
       <use xlink:href="#DejaVuSans-4c" transform="translate(301.125 0)"/>
       <use xlink:href="#DejaVuSans-51" transform="translate(328.90625 0)"/>
       <use xlink:href="#DejaVuSans-48" transform="translate(392.28125 0)"/>
       <use xlink:href="#DejaVuSans-47" transform="translate(453.8125 0)"/>
      </g>
      <!-- model -->
      <g style="fill: #8aa0bd" transform="translate(488.680384 347.116256) scale(0.105 -0.105)">
       <defs>
        <path id="DejaVuSans-50" d="M 3328 2828 
Q 3544 3216 3844 3400 
Q 4144 3584 4550 3584 
Q 5097 3584 5394 3201 
Q 5691 2819 5691 2113 
L 5691 0 
L 5113 0 
L 5113 2094 
Q 5113 2597 4934 2840 
Q 4756 3084 4391 3084 
Q 3944 3084 3684 2787 
Q 3425 2491 3425 1978 
L 3425 0 
L 2847 0 
L 2847 2094 
Q 2847 2600 2669 2842 
Q 2491 3084 2119 3084 
Q 1678 3084 1418 2786 
Q 1159 2488 1159 1978 
L 1159 0 
L 581 0 
L 581 3500 
L 1159 3500 
L 1159 2956 
Q 1356 3278 1631 3431 
Q 1906 3584 2284 3584 
Q 2666 3584 2933 3390 
Q 3200 3197 3328 2828 
z
" transform="scale(0.015625)"/>
        <path id="DejaVuSans-52" d="M 1959 3097 
Q 1497 3097 1228 2736 
Q 959 2375 959 1747 
Q 959 1119 1226 758 
Q 1494 397 1959 397 
Q 2419 397 2687 759 
Q 2956 1122 2956 1747 
Q 2956 2369 2687 2733 
Q 2419 3097 1959 3097 
z
M 1959 3584 
Q 2709 3584 3137 3096 
Q 3566 2609 3566 1747 
Q 3566 888 3137 398 
Q 2709 -91 1959 -91 
Q 1206 -91 779 398 
Q 353 888 353 1747 
Q 353 2609 779 3096 
Q 1206 3584 1959 3584 
z
" transform="scale(0.015625)"/>
       </defs>
       <use xlink:href="#DejaVuSans-50"/>
       <use xlink:href="#DejaVuSans-52" transform="translate(97.40625 0)"/>
       <use xlink:href="#DejaVuSans-47" transform="translate(158.59375 0)"/>
       <use xlink:href="#DejaVuSans-48" transform="translate(222.078125 0)"/>
       <use xlink:href="#DejaVuSans-4f" transform="translate(283.609375 0)"/>
      </g>
     </g>
    </g>
   </g>
   <g id="matplotlib.axis_2">
    <g id="ytick_1">
     <g id="line2d_4">
      <path d="M 73.44 321.984 
L 581.4 321.984 
" clip-path="url(#p16e221a68b)" style="fill: none; stroke: #22324d; stroke-opacity: 0.6; stroke-width: 0.8; stroke-linecap: square"/>
     </g>
     <g id="line2d_5"/>
     <g id="text_4">
      <!-- 0.00 -->
      <g style="fill: #8aa0bd" transform="translate(45.447812 326.162711) scale(0.11 -0.11)">
       <defs>
        <path id="DejaVuSans-13" d="M 2034 4250 
Q 1547 4250 1301 3770 
Q 1056 3291 1056 2328 
Q 1056 1369 1301 889 
Q 1547 409 2034 409 
Q 2525 409 2770 889 
Q 3016 1369 3016 2328 
Q 3016 3291 2770 3770 
Q 2525 4250 2034 4250 
z
M 2034 4750 
Q 2819 4750 3233 4129 
Q 3647 3509 3647 2328 
Q 3647 1150 3233 529 
Q 2819 -91 2034 -91 
Q 1250 -91 836 529 
Q 422 1150 422 2328 
Q 422 3509 836 4129 
Q 1250 4750 2034 4750 
z
" transform="scale(0.015625)"/>
        <path id="DejaVuSans-11" d="M 684 794 
L 1344 794 
L 1344 0 
L 684 0 
L 684 794 
z
" transform="scale(0.015625)"/>
       </defs>
       <use xlink:href="#DejaVuSans-13"/>
       <use xlink:href="#DejaVuSans-11" transform="translate(63.625 0)"/>
       <use xlink:href="#DejaVuSans-13" transform="translate(95.40625 0)"/>
       <use xlink:href="#DejaVuSans-13" transform="translate(159.03125 0)"/>
      </g>
     </g>
    </g>
    <g id="ytick_2">
     <g id="line2d_6">
      <path d="M 73.44 291.192224 
L 581.4 291.192224 
" clip-path="url(#p16e221a68b)" style="fill: none; stroke: #22324d; stroke-opacity: 0.6; stroke-width: 0.8; stroke-linecap: square"/>
     </g>
     <g id="line2d_7"/>
     <g id="text_5">
      <!-- 0.05 -->
      <g style="fill: #8aa0bd" transform="translate(45.447812 295.370935) scale(0.11 -0.11)">
       <defs>
        <path id="DejaVuSans-18" d="M 691 4666 
L 3169 4666 
L 3169 4134 
L 1269 4134 
L 1269 2991 
Q 1406 3038 1543 3061 
Q 1681 3084 1819 3084 
Q 2600 3084 3056 2656 
Q 3513 2228 3513 1497 
Q 3513 744 3044 326 
Q 2575 -91 1722 -91 
Q 1428 -91 1123 -41 
Q 819 9 494 109 
L 494 744 
Q 775 591 1075 516 
Q 1375 441 1709 441 
Q 2250 441 2565 725 
Q 2881 1009 2881 1497 
Q 2881 1984 2565 2268 
Q 2250 2553 1709 2553 
Q 1456 2553 1204 2497 
Q 953 2441 691 2322 
L 691 4666 
z
" transform="scale(0.015625)"/>
       </defs>
       <use xlink:href="#DejaVuSans-13"/>
       <use xlink:href="#DejaVuSans-11" transform="translate(63.625 0)"/>
       <use xlink:href="#DejaVuSans-13" transform="translate(95.40625 0)"/>
       <use xlink:href="#DejaVuSans-18" transform="translate(159.03125 0)"/>
      </g>
     </g>
    </g>
    <g id="ytick_3">
     <g id="line2d_8">
      <path d="M 73.44 260.400449 
L 581.4 260.400449 
" clip-path="url(#p16e221a68b)" style="fill: none; stroke: #22324d; stroke-opacity: 0.6; stroke-width: 0.8; stroke-linecap: square"/>
     </g>
     <g id="line2d_9"/>
     <g id="text_6">
      <!-- 0.10 -->
      <g style="fill: #8aa0bd" transform="translate(45.447812 264.57916) scale(0.11 -0.11)">
       <defs>
        <path id="DejaVuSans-14" d="M 794 531 
L 1825 531 
L 1825 4091 
L 703 3866 
L 703 4441 
L 1819 4666 
L 2450 4666 
L 2450 531 
L 3481 531 
L 3481 0 
L 794 0 
L 794 531 
z
" transform="scale(0.015625)"/>
       </defs>
       <use xlink:href="#DejaVuSans-13"/>
       <use xlink:href="#DejaVuSans-11" transform="translate(63.625 0)"/>
       <use xlink:href="#DejaVuSans-14" transform="translate(95.40625 0)"/>
       <use xlink:href="#DejaVuSans-13" transform="translate(159.03125 0)"/>
      </g>
     </g>
    </g>
    <g id="ytick_4">
     <g id="line2d_10">
      <path d="M 73.44 229.608673 
L 581.4 229.608673 
" clip-path="url(#p16e221a68b)" style="fill: none; stroke: #22324d; stroke-opacity: 0.6; stroke-width: 0.8; stroke-linecap: square"/>
     </g>
     <g id="line2d_11"/>
     <g id="text_7">
      <!-- 0.15 -->
      <g style="fill: #8aa0bd" transform="translate(45.447812 233.787384) scale(0.11 -0.11)">
       <use xlink:href="#DejaVuSans-13"/>
       <use xlink:href="#DejaVuSans-11" transform="translate(63.625 0)"/>
       <use xlink:href="#DejaVuSans-14" transform="translate(95.40625 0)"/>
       <use xlink:href="#DejaVuSans-18" transform="translate(159.03125 0)"/>
      </g>
     </g>
    </g>
    <g id="ytick_5">
     <g id="line2d_12">
      <path d="M 73.44 198.816897 
L 581.4 198.816897 
" clip-path="url(#p16e221a68b)" style="fill: none; stroke: #22324d; stroke-opacity: 0.6; stroke-width: 0.8; stroke-linecap: square"/>
     </g>
     <g id="line2d_13"/>
     <g id="text_8">
      <!-- 0.20 -->
      <g style="fill: #8aa0bd" transform="translate(45.447812 202.995608) scale(0.11 -0.11)">
       <defs>
        <path id="DejaVuSans-15" d="M 1228 531 
L 3431 531 
L 3431 0 
L 469 0 
L 469 531 
Q 828 903 1448 1529 
Q 2069 2156 2228 2338 
Q 2531 2678 2651 2914 
Q 2772 3150 2772 3378 
Q 2772 3750 2511 3984 
Q 2250 4219 1831 4219 
Q 1534 4219 1204 4116 
Q 875 4013 500 3803 
L 500 4441 
Q 881 4594 1212 4672 
Q 1544 4750 1819 4750 
Q 2544 4750 2975 4387 
Q 3406 4025 3406 3419 
Q 3406 3131 3298 2873 
Q 3191 2616 2906 2266 
Q 2828 2175 2409 1742 
Q 1991 1309 1228 531 
z
" transform="scale(0.015625)"/>
       </defs>
       <use xlink:href="#DejaVuSans-13"/>
       <use xlink:href="#DejaVuSans-11" transform="translate(63.625 0)"/>
       <use xlink:href="#DejaVuSans-15" transform="translate(95.40625 0)"/>
       <use xlink:href="#DejaVuSans-13" transform="translate(159.03125 0)"/>
      </g>
     </g>
    </g>
    <g id="ytick_6">
     <g id="line2d_14">
      <path d="M 73.44 168.025121 
L 581.4 168.025121 
" clip-path="url(#p16e221a68b)" style="fill: none; stroke: #22324d; stroke-opacity: 0.6; stroke-width: 0.8; stroke-linecap: square"/>
     </g>
     <g id="line2d_15"/>
     <g id="text_9">
      <!-- 0.25 -->
      <g style="fill: #8aa0bd" transform="translate(45.447812 172.203832) scale(0.11 -0.11)">
       <use xlink:href="#DejaVuSans-13"/>
       <use xlink:href="#DejaVuSans-11" transform="translate(63.625 0)"/>
       <use xlink:href="#DejaVuSans-15" transform="translate(95.40625 0)"/>
       <use xlink:href="#DejaVuSans-18" transform="translate(159.03125 0)"/>
      </g>
     </g>
    </g>
    <g id="ytick_7">
     <g id="line2d_16">
      <path d="M 73.44 137.233346 
L 581.4 137.233346 
" clip-path="url(#p16e221a68b)" style="fill: none; stroke: #22324d; stroke-opacity: 0.6; stroke-width: 0.8; stroke-linecap: square"/>
     </g>
     <g id="line2d_17"/>
     <g id="text_10">
      <!-- 0.30 -->
      <g style="fill: #8aa0bd" transform="translate(45.447812 141.412057) scale(0.11 -0.11)">
       <defs>
        <path id="DejaVuSans-16" d="M 2597 2516 
Q 3050 2419 3304 2112 
Q 3559 1806 3559 1356 
Q 3559 666 3084 287 
Q 2609 -91 1734 -91 
Q 1441 -91 1130 -33 
Q 819 25 488 141 
L 488 750 
Q 750 597 1062 519 
Q 1375 441 1716 441 
Q 2309 441 2620 675 
Q 2931 909 2931 1356 
Q 2931 1769 2642 2001 
Q 2353 2234 1838 2234 
L 1294 2234 
L 1294 2753 
L 1863 2753 
Q 2328 2753 2575 2939 
Q 2822 3125 2822 3475 
Q 2822 3834 2567 4026 
Q 2313 4219 1838 4219 
Q 1578 4219 1281 4162 
Q 984 4106 628 3988 
L 628 4550 
Q 988 4650 1302 4700 
Q 1616 4750 1894 4750 
Q 2613 4750 3031 4423 
Q 3450 4097 3450 3541 
Q 3450 3153 3228 2886 
Q 3006 2619 2597 2516 
z
" transform="scale(0.015625)"/>
       </defs>
       <use xlink:href="#DejaVuSans-13"/>
       <use xlink:href="#DejaVuSans-11" transform="translate(63.625 0)"/>
       <use xlink:href="#DejaVuSans-16" transform="translate(95.40625 0)"/>
       <use xlink:href="#DejaVuSans-13" transform="translate(159.03125 0)"/>
      </g>
     </g>
    </g>
    <g id="ytick_8">
     <g id="line2d_18">
      <path d="M 73.44 106.44157 
L 581.4 106.44157 
" clip-path="url(#p16e221a68b)" style="fill: none; stroke: #22324d; stroke-opacity: 0.6; stroke-width: 0.8; stroke-linecap: square"/>
     </g>
     <g id="line2d_19"/>
     <g id="text_11">
      <!-- 0.35 -->
      <g style="fill: #8aa0bd" transform="translate(45.447812 110.620281) scale(0.11 -0.11)">
       <use xlink:href="#DejaVuSans-13"/>
       <use xlink:href="#DejaVuSans-11" transform="translate(63.625 0)"/>
       <use xlink:href="#DejaVuSans-16" transform="translate(95.40625 0)"/>
       <use xlink:href="#DejaVuSans-18" transform="translate(159.03125 0)"/>
      </g>
     </g>
    </g>
    <g id="ytick_9">
     <g id="line2d_20">
      <path d="M 73.44 75.649794 
L 581.4 75.649794 
" clip-path="url(#p16e221a68b)" style="fill: none; stroke: #22324d; stroke-opacity: 0.6; stroke-width: 0.8; stroke-linecap: square"/>
     </g>
     <g id="line2d_21"/>
     <g id="text_12">
      <!-- 0.40 -->
      <g style="fill: #8aa0bd" transform="translate(45.447812 79.828505) scale(0.11 -0.11)">
       <defs>
        <path id="DejaVuSans-17" d="M 2419 4116 
L 825 1625 
L 2419 1625 
L 2419 4116 
z
M 2253 4666 
L 3047 4666 
L 3047 1625 
L 3713 1625 
L 3713 1100 
L 3047 1100 
L 3047 0 
L 2419 0 
L 2419 1100 
L 313 1100 
L 313 1709 
L 2253 4666 
z
" transform="scale(0.015625)"/>
       </defs>
       <use xlink:href="#DejaVuSans-13"/>
       <use xlink:href="#DejaVuSans-11" transform="translate(63.625 0)"/>
       <use xlink:href="#DejaVuSans-17" transform="translate(95.40625 0)"/>
       <use xlink:href="#DejaVuSans-13" transform="translate(159.03125 0)"/>
      </g>
     </g>
    </g>
    <g id="text_13">
     <!-- mean reward -->
     <g style="fill: #8aa0bd" transform="translate(39.045469 231.517938) rotate(-90) scale(0.1 -0.1)">
      <defs>
       <path id="DejaVuSans-3" transform="scale(0.015625)"/>
      </defs>
      <use xlink:href="#DejaVuSans-50"/>
      <use xlink:href="#DejaVuSans-48" transform="translate(97.40625 0)"/>
      <use xlink:href="#DejaVuSans-44" transform="translate(158.9375 0)"/>
      <use xlink:href="#DejaVuSans-51" transform="translate(220.21875 0)"/>
      <use xlink:href="#DejaVuSans-3" transform="translate(283.59375 0)"/>
      <use xlink:href="#DejaVuSans-55" transform="translate(315.375 0)"/>
      <use xlink:href="#DejaVuSans-48" transform="translate(354.28125 0)"/>
      <use xlink:href="#DejaVuSans-5a" transform="translate(415.8125 0)"/>
      <use xlink:href="#DejaVuSans-44" transform="translate(497.59375 0)"/>
      <use xlink:href="#DejaVuSans-55" transform="translate(558.875 0)"/>
      <use xlink:href="#DejaVuSans-47" transform="translate(598.234375 0)"/>
     </g>
    </g>
   </g>
   <g id="line2d_22">
    <path d="M 73.44 156.441871 
L 581.4 156.441871 
" clip-path="url(#p16e221a68b)" style="fill: none; stroke-dasharray: 4,4; stroke-dashoffset: 0; stroke: #8aa0bd; stroke-opacity: 0.5"/>
   </g>
   <g id="patch_3">
    <path d="M 73.44 321.984 
L 581.4 321.984 
" style="fill: none; stroke: #22324d; stroke-width: 0.8; stroke-linejoin: miter; stroke-linecap: square"/>
   </g>
   <g id="patch_4">
    <path d="M 96.529091 321.984 
L 203.094126 321.984 
L 203.094126 156.441871 
L 96.529091 156.441871 
z
" clip-path="url(#p16e221a68b)" style="fill: #64748b"/>
   </g>
   <g id="patch_5">
    <path d="M 274.137483 321.984 
L 380.702517 321.984 
L 380.702517 124.427046 
L 274.137483 124.427046 
z
" clip-path="url(#p16e221a68b)" style="fill: #38bdf8"/>
   </g>
   <g id="patch_6">
    <path d="M 451.745874 321.984 
L 558.310909 321.984 
L 558.310909 124.3008 
L 451.745874 124.3008 
z
" clip-path="url(#p16e221a68b)" style="fill: #a78bfa"/>
   </g>
   <g id="text_14">
    <path d="M 137.47528 143.85036 
Q 137.47528 142.346453 137.193405 141.73286 
Q 136.91153 141.117547 136.244655 141.117547 
Q 135.579499 141.117547 135.294187 141.73286 
Q 135.008874 142.346453 135.008874 143.85036 
Q 135.008874 145.371453 135.294187 145.99536 
Q 135.579499 146.617547 136.244655 146.617547 
Q 136.906374 146.617547 137.189968 145.99536 
Q 137.47528 145.371453 137.47528 143.85036 
z
M 139.542937 143.867547 
Q 139.542937 145.859578 138.683562 146.942391 
Q 137.824187 148.025203 136.244655 148.025203 
Q 134.659968 148.025203 133.800593 146.942391 
Q 132.941218 145.859578 132.941218 143.867547 
Q 132.941218 141.868641 133.800593 140.787547 
Q 134.659968 139.704735 136.244655 139.704735 
Q 137.824187 139.704735 138.683562 140.787547 
Q 139.542937 141.868641 139.542937 143.867547 
z
M 141.191218 145.790828 
L 143.124812 145.790828 
L 143.124812 147.868797 
L 141.191218 147.868797 
L 141.191218 145.790828 
z
M 147.41653 146.349422 
L 150.945124 146.349422 
L 150.945124 147.868797 
L 145.116843 147.868797 
L 145.116843 146.349422 
L 148.043874 143.764422 
Q 148.437468 143.41036 148.624812 143.071766 
Q 148.812155 142.733172 148.812155 142.368797 
Q 148.812155 141.805047 148.43403 141.461297 
Q 148.055905 141.117547 147.426843 141.117547 
Q 146.943874 141.117547 146.368093 141.323797 
Q 145.79403 141.530047 145.139187 141.93911 
L 145.139187 140.177391 
Q 145.836999 139.947078 146.519343 139.826766 
Q 147.201687 139.704735 147.85653 139.704735 
Q 149.296843 139.704735 150.094343 140.338953 
Q 150.891843 140.971453 150.891843 142.105828 
Q 150.891843 142.760672 150.553249 143.32786 
Q 150.214655 143.893328 149.130124 144.845516 
L 147.41653 146.349422 
z
M 155.881374 143.910516 
Q 155.338249 143.910516 155.066687 144.26286 
Q 154.795124 144.613485 154.795124 145.318172 
Q 154.795124 146.021141 155.066687 146.373485 
Q 155.338249 146.72411 155.881374 146.72411 
Q 156.427937 146.72411 156.699499 146.373485 
Q 156.971062 146.021141 156.971062 145.318172 
Q 156.971062 144.613485 156.699499 144.26286 
Q 156.427937 143.910516 155.881374 143.910516 
z
M 158.437155 140.058797 
L 158.437155 141.542078 
Q 157.926687 141.299735 157.474655 141.184578 
Q 157.024343 141.069422 156.594655 141.069422 
Q 155.671687 141.069422 155.156062 141.583328 
Q 154.640437 142.095516 154.554499 143.104422 
Q 154.908562 142.841453 155.321062 142.710828 
Q 155.73528 142.578485 156.225124 142.578485 
Q 157.45403 142.578485 158.208562 143.298641 
Q 158.963093 144.017078 158.963093 145.182391 
Q 158.963093 146.471453 158.119187 147.248328 
Q 157.276999 148.025203 155.85903 148.025203 
Q 154.296687 148.025203 153.43903 146.969891 
Q 152.583093 145.91286 152.583093 143.97411 
Q 152.583093 141.987235 153.585124 140.851141 
Q 154.587155 139.715047 156.331687 139.715047 
Q 156.885124 139.715047 157.405905 139.800985 
Q 157.926687 139.886922 158.437155 140.058797 
z
M 160.656062 147.691766 
L 160.656062 146.208485 
Q 161.149343 146.440516 161.599655 146.555672 
Q 162.051687 146.670828 162.491687 146.670828 
Q 163.416374 146.670828 163.931999 146.158641 
Q 164.447624 145.644735 164.538718 144.635828 
Q 164.174343 144.903953 163.760124 145.038016 
Q 163.345905 145.172078 162.862937 145.172078 
Q 161.632312 145.172078 160.87778 144.45536 
Q 160.123249 143.738641 160.123249 142.568172 
Q 160.123249 141.272235 160.963718 140.493641 
Q 161.804187 139.715047 163.216999 139.715047 
Q 164.786218 139.715047 165.645593 140.773797 
Q 166.504968 141.830828 166.504968 143.764422 
Q 166.504968 145.753016 165.499499 146.88911 
Q 164.495749 148.025203 162.744343 148.025203 
Q 162.180593 148.025203 161.664968 147.940985 
Q 161.149343 147.858485 160.656062 147.691766 
z
M 163.206687 143.829735 
Q 163.749812 143.829735 164.023093 143.47911 
Q 164.296374 143.126766 164.296374 142.422078 
Q 164.296374 141.724266 164.023093 141.370203 
Q 163.749812 141.014422 163.206687 141.014422 
Q 162.663562 141.014422 162.39028 141.370203 
Q 162.116999 141.724266 162.116999 142.422078 
Q 162.116999 143.126766 162.39028 143.47911 
Q 162.663562 143.829735 163.206687 143.829735 
z
" style="fill: #e6edf6; stroke: #0b1220; stroke-width: 2.5"/>
    <path d="M 137.47528 143.85036 
Q 137.47528 142.346453 137.193405 141.73286 
Q 136.91153 141.117547 136.244655 141.117547 
Q 135.579499 141.117547 135.294187 141.73286 
Q 135.008874 142.346453 135.008874 143.85036 
Q 135.008874 145.371453 135.294187 145.99536 
Q 135.579499 146.617547 136.244655 146.617547 
Q 136.906374 146.617547 137.189968 145.99536 
Q 137.47528 145.371453 137.47528 143.85036 
z
M 139.542937 143.867547 
Q 139.542937 145.859578 138.683562 146.942391 
Q 137.824187 148.025203 136.244655 148.025203 
Q 134.659968 148.025203 133.800593 146.942391 
Q 132.941218 145.859578 132.941218 143.867547 
Q 132.941218 141.868641 133.800593 140.787547 
Q 134.659968 139.704735 136.244655 139.704735 
Q 137.824187 139.704735 138.683562 140.787547 
Q 139.542937 141.868641 139.542937 143.867547 
z
M 141.191218 145.790828 
L 143.124812 145.790828 
L 143.124812 147.868797 
L 141.191218 147.868797 
L 141.191218 145.790828 
z
M 147.41653 146.349422 
L 150.945124 146.349422 
L 150.945124 147.868797 
L 145.116843 147.868797 
L 145.116843 146.349422 
L 148.043874 143.764422 
Q 148.437468 143.41036 148.624812 143.071766 
Q 148.812155 142.733172 148.812155 142.368797 
Q 148.812155 141.805047 148.43403 141.461297 
Q 148.055905 141.117547 147.426843 141.117547 
Q 146.943874 141.117547 146.368093 141.323797 
Q 145.79403 141.530047 145.139187 141.93911 
L 145.139187 140.177391 
Q 145.836999 139.947078 146.519343 139.826766 
Q 147.201687 139.704735 147.85653 139.704735 
Q 149.296843 139.704735 150.094343 140.338953 
Q 150.891843 140.971453 150.891843 142.105828 
Q 150.891843 142.760672 150.553249 143.32786 
Q 150.214655 143.893328 149.130124 144.845516 
L 147.41653 146.349422 
z
M 155.881374 143.910516 
Q 155.338249 143.910516 155.066687 144.26286 
Q 154.795124 144.613485 154.795124 145.318172 
Q 154.795124 146.021141 155.066687 146.373485 
Q 155.338249 146.72411 155.881374 146.72411 
Q 156.427937 146.72411 156.699499 146.373485 
Q 156.971062 146.021141 156.971062 145.318172 
Q 156.971062 144.613485 156.699499 144.26286 
Q 156.427937 143.910516 155.881374 143.910516 
z
M 158.437155 140.058797 
L 158.437155 141.542078 
Q 157.926687 141.299735 157.474655 141.184578 
Q 157.024343 141.069422 156.594655 141.069422 
Q 155.671687 141.069422 155.156062 141.583328 
Q 154.640437 142.095516 154.554499 143.104422 
Q 154.908562 142.841453 155.321062 142.710828 
Q 155.73528 142.578485 156.225124 142.578485 
Q 157.45403 142.578485 158.208562 143.298641 
Q 158.963093 144.017078 158.963093 145.182391 
Q 158.963093 146.471453 158.119187 147.248328 
Q 157.276999 148.025203 155.85903 148.025203 
Q 154.296687 148.025203 153.43903 146.969891 
Q 152.583093 145.91286 152.583093 143.97411 
Q 152.583093 141.987235 153.585124 140.851141 
Q 154.587155 139.715047 156.331687 139.715047 
Q 156.885124 139.715047 157.405905 139.800985 
Q 157.926687 139.886922 158.437155 140.058797 
z
M 160.656062 147.691766 
L 160.656062 146.208485 
Q 161.149343 146.440516 161.599655 146.555672 
Q 162.051687 146.670828 162.491687 146.670828 
Q 163.416374 146.670828 163.931999 146.158641 
Q 164.447624 145.644735 164.538718 144.635828 
Q 164.174343 144.903953 163.760124 145.038016 
Q 163.345905 145.172078 162.862937 145.172078 
Q 161.632312 145.172078 160.87778 144.45536 
Q 160.123249 143.738641 160.123249 142.568172 
Q 160.123249 141.272235 160.963718 140.493641 
Q 161.804187 139.715047 163.216999 139.715047 
Q 164.786218 139.715047 165.645593 140.773797 
Q 166.504968 141.830828 166.504968 143.764422 
Q 166.504968 145.753016 165.499499 146.88911 
Q 164.495749 148.025203 162.744343 148.025203 
Q 162.180593 148.025203 161.664968 147.940985 
Q 161.149343 147.858485 160.656062 147.691766 
z
M 163.206687 143.829735 
Q 163.749812 143.829735 164.023093 143.47911 
Q 164.296374 143.126766 164.296374 142.422078 
Q 164.296374 141.724266 164.023093 141.370203 
Q 163.749812 141.014422 163.206687 141.014422 
Q 162.663562 141.014422 162.39028 141.370203 
Q 162.116999 141.724266 162.116999 142.422078 
Q 162.116999 143.126766 162.39028 143.47911 
Q 162.663562 143.829735 163.206687 143.829735 
z
" style="fill: #e6edf6"/>
   </g>
   <g id="text_15">
    <path d="M 315.083672 111.835535 
Q 315.083672 110.331628 314.801797 109.718035 
Q 314.519922 109.102722 313.853047 109.102722 
Q 313.187891 109.102722 312.902578 109.718035 
Q 312.617266 110.331628 312.617266 111.835535 
Q 312.617266 113.356628 312.902578 113.980535 
Q 313.187891 114.602722 313.853047 114.602722 
Q 314.514766 114.602722 314.798359 113.980535 
Q 315.083672 113.356628 315.083672 111.835535 
z
M 317.151328 111.852722 
Q 317.151328 113.844753 316.291953 114.927566 
Q 315.432578 116.010378 313.853047 116.010378 
Q 312.268359 116.010378 311.408984 114.927566 
Q 310.549609 113.844753 310.549609 111.852722 
Q 310.549609 109.853816 311.408984 108.772722 
Q 312.268359 107.68991 313.853047 107.68991 
Q 315.432578 107.68991 316.291953 108.772722 
Q 317.151328 109.853816 317.151328 111.852722 
z
M 318.799609 113.776003 
L 320.733203 113.776003 
L 320.733203 115.853972 
L 318.799609 115.853972 
L 318.799609 113.776003 
z
M 326.979141 111.529597 
Q 327.790391 111.739285 328.211484 112.258347 
Q 328.634297 112.775691 328.634297 113.576628 
Q 328.634297 114.769441 327.719922 115.38991 
Q 326.807266 116.010378 325.057578 116.010378 
Q 324.438828 116.010378 323.818359 115.910691 
Q 323.197891 115.811003 322.591172 115.611628 
L 322.591172 114.016628 
Q 323.172109 114.307097 323.742734 114.45491 
Q 324.315078 114.602722 324.868516 114.602722 
Q 325.690078 114.602722 326.128359 114.319128 
Q 326.566641 114.033816 326.566641 113.501003 
Q 326.566641 112.952722 326.118047 112.670847 
Q 325.669453 112.388972 324.792891 112.388972 
L 323.966172 112.388972 
L 323.966172 111.056941 
L 324.835859 111.056941 
Q 325.616172 111.056941 325.996016 110.812878 
Q 326.377578 110.568816 326.377578 110.06866 
Q 326.377578 109.608035 326.006328 109.355378 
Q 325.636797 109.102722 324.959609 109.102722 
Q 324.461172 109.102722 323.950703 109.21616 
Q 323.440234 109.327878 322.934922 109.547878 
L 322.934922 108.03366 
Q 323.546797 107.861785 324.148359 107.775847 
Q 324.749922 107.68991 325.330859 107.68991 
Q 326.893203 107.68991 327.668359 108.203816 
Q 328.445234 108.716003 328.445234 109.747253 
Q 328.445234 110.450222 328.073984 110.898816 
Q 327.704453 111.34741 326.979141 111.529597 
z
M 332.678516 114.334597 
L 336.207109 114.334597 
L 336.207109 115.853972 
L 330.378828 115.853972 
L 330.378828 114.334597 
L 333.305859 111.749597 
Q 333.699453 111.395535 333.886797 111.056941 
Q 334.074141 110.718347 334.074141 110.353972 
Q 334.074141 109.790222 333.696016 109.446472 
Q 333.317891 109.102722 332.688828 109.102722 
Q 332.205859 109.102722 331.630078 109.308972 
Q 331.056016 109.515222 330.401172 109.924285 
L 330.401172 108.162566 
Q 331.098984 107.932253 331.781328 107.811941 
Q 332.463672 107.68991 333.118516 107.68991 
Q 334.558828 107.68991 335.356328 108.324128 
Q 336.153828 108.956628 336.153828 110.091003 
Q 336.153828 110.745847 335.815234 111.313035 
Q 335.476641 111.878503 334.392109 112.830691 
L 332.678516 114.334597 
z
M 338.451797 114.425691 
L 340.278828 114.425691 
L 340.278828 109.241941 
L 338.403672 109.62866 
L 338.403672 108.221003 
L 340.266797 107.834285 
L 342.233047 107.834285 
L 342.233047 114.425691 
L 344.060078 114.425691 
L 344.060078 115.853972 
L 338.451797 115.853972 
L 338.451797 114.425691 
z
" style="fill: #e6edf6; stroke: #0b1220; stroke-width: 2.5"/>
    <path d="M 315.083672 111.835535 
Q 315.083672 110.331628 314.801797 109.718035 
Q 314.519922 109.102722 313.853047 109.102722 
Q 313.187891 109.102722 312.902578 109.718035 
Q 312.617266 110.331628 312.617266 111.835535 
Q 312.617266 113.356628 312.902578 113.980535 
Q 313.187891 114.602722 313.853047 114.602722 
Q 314.514766 114.602722 314.798359 113.980535 
Q 315.083672 113.356628 315.083672 111.835535 
z
M 317.151328 111.852722 
Q 317.151328 113.844753 316.291953 114.927566 
Q 315.432578 116.010378 313.853047 116.010378 
Q 312.268359 116.010378 311.408984 114.927566 
Q 310.549609 113.844753 310.549609 111.852722 
Q 310.549609 109.853816 311.408984 108.772722 
Q 312.268359 107.68991 313.853047 107.68991 
Q 315.432578 107.68991 316.291953 108.772722 
Q 317.151328 109.853816 317.151328 111.852722 
z
M 318.799609 113.776003 
L 320.733203 113.776003 
L 320.733203 115.853972 
L 318.799609 115.853972 
L 318.799609 113.776003 
z
M 326.979141 111.529597 
Q 327.790391 111.739285 328.211484 112.258347 
Q 328.634297 112.775691 328.634297 113.576628 
Q 328.634297 114.769441 327.719922 115.38991 
Q 326.807266 116.010378 325.057578 116.010378 
Q 324.438828 116.010378 323.818359 115.910691 
Q 323.197891 115.811003 322.591172 115.611628 
L 322.591172 114.016628 
Q 323.172109 114.307097 323.742734 114.45491 
Q 324.315078 114.602722 324.868516 114.602722 
Q 325.690078 114.602722 326.128359 114.319128 
Q 326.566641 114.033816 326.566641 113.501003 
Q 326.566641 112.952722 326.118047 112.670847 
Q 325.669453 112.388972 324.792891 112.388972 
L 323.966172 112.388972 
L 323.966172 111.056941 
L 324.835859 111.056941 
Q 325.616172 111.056941 325.996016 110.812878 
Q 326.377578 110.568816 326.377578 110.06866 
Q 326.377578 109.608035 326.006328 109.355378 
Q 325.636797 109.102722 324.959609 109.102722 
Q 324.461172 109.102722 323.950703 109.21616 
Q 323.440234 109.327878 322.934922 109.547878 
L 322.934922 108.03366 
Q 323.546797 107.861785 324.148359 107.775847 
Q 324.749922 107.68991 325.330859 107.68991 
Q 326.893203 107.68991 327.668359 108.203816 
Q 328.445234 108.716003 328.445234 109.747253 
Q 328.445234 110.450222 328.073984 110.898816 
Q 327.704453 111.34741 326.979141 111.529597 
z
M 332.678516 114.334597 
L 336.207109 114.334597 
L 336.207109 115.853972 
L 330.378828 115.853972 
L 330.378828 114.334597 
L 333.305859 111.749597 
Q 333.699453 111.395535 333.886797 111.056941 
Q 334.074141 110.718347 334.074141 110.353972 
Q 334.074141 109.790222 333.696016 109.446472 
Q 333.317891 109.102722 332.688828 109.102722 
Q 332.205859 109.102722 331.630078 109.308972 
Q 331.056016 109.515222 330.401172 109.924285 
L 330.401172 108.162566 
Q 331.098984 107.932253 331.781328 107.811941 
Q 332.463672 107.68991 333.118516 107.68991 
Q 334.558828 107.68991 335.356328 108.324128 
Q 336.153828 108.956628 336.153828 110.091003 
Q 336.153828 110.745847 335.815234 111.313035 
Q 335.476641 111.878503 334.392109 112.830691 
L 332.678516 114.334597 
z
M 338.451797 114.425691 
L 340.278828 114.425691 
L 340.278828 109.241941 
L 338.403672 109.62866 
L 338.403672 108.221003 
L 340.266797 107.834285 
L 342.233047 107.834285 
L 342.233047 114.425691 
L 344.060078 114.425691 
L 344.060078 115.853972 
L 338.451797 115.853972 
L 338.451797 114.425691 
z
" style="fill: #e6edf6"/>
   </g>
   <g id="text_16">
    <path d="M 492.692063 61.07177 
Q 492.692063 59.567864 492.410188 58.95427 
Q 492.128313 58.338958 491.461438 58.338958 
Q 490.796282 58.338958 490.51097 58.95427 
Q 490.225657 59.567864 490.225657 61.07177 
Q 490.225657 62.592864 490.51097 63.21677 
Q 490.796282 63.838958 491.461438 63.838958 
Q 492.123157 63.838958 492.406751 63.21677 
Q 492.692063 62.592864 492.692063 61.07177 
z
M 494.75972 61.088958 
Q 494.75972 63.080989 493.900345 64.163802 
Q 493.04097 65.246614 491.461438 65.246614 
Q 489.876751 65.246614 489.017376 64.163802 
Q 488.158001 63.080989 488.158001 61.088958 
Q 488.158001 59.090052 489.017376 58.008958 
Q 489.876751 56.926145 491.461438 56.926145 
Q 493.04097 56.926145 493.900345 58.008958 
Q 494.75972 59.090052 494.75972 61.088958 
z
M 496.408001 63.012239 
L 498.341595 63.012239 
L 498.341595 65.090208 
L 496.408001 65.090208 
L 496.408001 63.012239 
z
M 504.587532 60.765833 
Q 505.398782 60.97552 505.819876 61.494583 
Q 506.242688 62.011927 506.242688 62.812864 
Q 506.242688 64.005677 505.328313 64.626145 
Q 504.415657 65.246614 502.66597 65.246614 
Q 502.04722 65.246614 501.426751 65.146927 
Q 500.806282 65.047239 500.199563 64.847864 
L 500.199563 63.252864 
Q 500.780501 63.543333 501.351126 63.691145 
Q 501.92347 63.838958 502.476907 63.838958 
Q 503.29847 63.838958 503.736751 63.555364 
Q 504.175032 63.270052 504.175032 62.737239 
Q 504.175032 62.188958 503.726438 61.907083 
Q 503.277845 61.625208 502.401282 61.625208 
L 501.574563 61.625208 
L 501.574563 60.293177 
L 502.444251 60.293177 
Q 503.224563 60.293177 503.604407 60.049114 
Q 503.98597 59.805052 503.98597 59.304895 
Q 503.98597 58.84427 503.61472 58.591614 
Q 503.245188 58.338958 502.568001 58.338958 
Q 502.069563 58.338958 501.559095 58.452395 
Q 501.048626 58.564114 500.543313 58.784114 
L 500.543313 57.269895 
Q 501.155188 57.09802 501.756751 57.012083 
Q 502.358313 56.926145 502.939251 56.926145 
Q 504.501595 56.926145 505.276751 57.440052 
Q 506.053626 57.952239 506.053626 58.983489 
Q 506.053626 59.686458 505.682376 60.135052 
Q 505.312845 60.583645 504.587532 60.765833 
z
M 510.286907 63.570833 
L 513.815501 63.570833 
L 513.815501 65.090208 
L 507.98722 65.090208 
L 507.98722 63.570833 
L 510.914251 60.985833 
Q 511.307845 60.63177 511.495188 60.293177 
Q 511.682532 59.954583 511.682532 59.590208 
Q 511.682532 59.026458 511.304407 58.682708 
Q 510.926282 58.338958 510.29722 58.338958 
Q 509.814251 58.338958 509.23847 58.545208 
Q 508.664407 58.751458 508.009563 59.16052 
L 508.009563 57.398802 
Q 508.707376 57.168489 509.38972 57.048177 
Q 510.072063 56.926145 510.726907 56.926145 
Q 512.16722 56.926145 512.96472 57.560364 
Q 513.76222 58.192864 513.76222 59.327239 
Q 513.76222 59.982083 513.423626 60.54927 
Q 513.085032 61.114739 512.000501 62.066927 
L 510.286907 63.570833 
z
M 516.060188 63.661927 
L 517.88722 63.661927 
L 517.88722 58.478177 
L 516.012063 58.864895 
L 516.012063 57.457239 
L 517.875188 57.07052 
L 519.841438 57.07052 
L 519.841438 63.661927 
L 521.66847 63.661927 
L 521.66847 65.090208 
L 516.060188 65.090208 
L 516.060188 63.661927 
z
" style="fill: #e6edf6; stroke: #0b1220; stroke-width: 2.5"/>
    <path d="M 492.692063 61.07177 
Q 492.692063 59.567864 492.410188 58.95427 
Q 492.128313 58.338958 491.461438 58.338958 
Q 490.796282 58.338958 490.51097 58.95427 
Q 490.225657 59.567864 490.225657 61.07177 
Q 490.225657 62.592864 490.51097 63.21677 
Q 490.796282 63.838958 491.461438 63.838958 
Q 492.123157 63.838958 492.406751 63.21677 
Q 492.692063 62.592864 492.692063 61.07177 
z
M 494.75972 61.088958 
Q 494.75972 63.080989 493.900345 64.163802 
Q 493.04097 65.246614 491.461438 65.246614 
Q 489.876751 65.246614 489.017376 64.163802 
Q 488.158001 63.080989 488.158001 61.088958 
Q 488.158001 59.090052 489.017376 58.008958 
Q 489.876751 56.926145 491.461438 56.926145 
Q 493.04097 56.926145 493.900345 58.008958 
Q 494.75972 59.090052 494.75972 61.088958 
z
M 496.408001 63.012239 
L 498.341595 63.012239 
L 498.341595 65.090208 
L 496.408001 65.090208 
L 496.408001 63.012239 
z
M 504.587532 60.765833 
Q 505.398782 60.97552 505.819876 61.494583 
Q 506.242688 62.011927 506.242688 62.812864 
Q 506.242688 64.005677 505.328313 64.626145 
Q 504.415657 65.246614 502.66597 65.246614 
Q 502.04722 65.246614 501.426751 65.146927 
Q 500.806282 65.047239 500.199563 64.847864 
L 500.199563 63.252864 
Q 500.780501 63.543333 501.351126 63.691145 
Q 501.92347 63.838958 502.476907 63.838958 
Q 503.29847 63.838958 503.736751 63.555364 
Q 504.175032 63.270052 504.175032 62.737239 
Q 504.175032 62.188958 503.726438 61.907083 
Q 503.277845 61.625208 502.401282 61.625208 
L 501.574563 61.625208 
L 501.574563 60.293177 
L 502.444251 60.293177 
Q 503.224563 60.293177 503.604407 60.049114 
Q 503.98597 59.805052 503.98597 59.304895 
Q 503.98597 58.84427 503.61472 58.591614 
Q 503.245188 58.338958 502.568001 58.338958 
Q 502.069563 58.338958 501.559095 58.452395 
Q 501.048626 58.564114 500.543313 58.784114 
L 500.543313 57.269895 
Q 501.155188 57.09802 501.756751 57.012083 
Q 502.358313 56.926145 502.939251 56.926145 
Q 504.501595 56.926145 505.276751 57.440052 
Q 506.053626 57.952239 506.053626 58.983489 
Q 506.053626 59.686458 505.682376 60.135052 
Q 505.312845 60.583645 504.587532 60.765833 
z
M 510.286907 63.570833 
L 513.815501 63.570833 
L 513.815501 65.090208 
L 507.98722 65.090208 
L 507.98722 63.570833 
L 510.914251 60.985833 
Q 511.307845 60.63177 511.495188 60.293177 
Q 511.682532 59.954583 511.682532 59.590208 
Q 511.682532 59.026458 511.304407 58.682708 
Q 510.926282 58.338958 510.29722 58.338958 
Q 509.814251 58.338958 509.23847 58.545208 
Q 508.664407 58.751458 508.009563 59.16052 
L 508.009563 57.398802 
Q 508.707376 57.168489 509.38972 57.048177 
Q 510.072063 56.926145 510.726907 56.926145 
Q 512.16722 56.926145 512.96472 57.560364 
Q 513.76222 58.192864 513.76222 59.327239 
Q 513.76222 59.982083 513.423626 60.54927 
Q 513.085032 61.114739 512.000501 62.066927 
L 510.286907 63.570833 
z
M 516.060188 63.661927 
L 517.88722 63.661927 
L 517.88722 58.478177 
L 516.012063 58.864895 
L 516.012063 57.457239 
L 517.875188 57.07052 
L 519.841438 57.07052 
L 519.841438 63.661927 
L 521.66847 63.661927 
L 521.66847 65.090208 
L 516.060188 65.090208 
L 516.060188 63.661927 
z
" style="fill: #e6edf6"/>
    <path d="M 486.355892 71.395013 
L 486.355892 73.297669 
L 489.159173 73.297669 
L 489.159173 74.564388 
L 486.355892 74.564388 
L 486.355892 76.465325 
L 485.077142 76.465325 
L 485.077142 74.564388 
L 482.27386 74.564388 
L 482.27386 73.297669 
L 485.077142 73.297669 
L 485.077142 71.395013 
L 486.355892 71.395013 
z
M 482.27386 77.013606 
L 489.159173 77.013606 
L 489.159173 78.292356 
L 482.27386 78.292356 
L 482.27386 77.013606 
z
M 499.215579 74.273919 
Q 499.215579 72.770013 498.933704 72.156419 
Q 498.651829 71.541106 497.984954 71.541106 
Q 497.319798 71.541106 497.034485 72.156419 
Q 496.749173 72.770013 496.749173 74.273919 
Q 496.749173 75.795013 497.034485 76.418919 
Q 497.319798 77.041106 497.984954 77.041106 
Q 498.646673 77.041106 498.930267 76.418919 
Q 499.215579 75.795013 499.215579 74.273919 
z
M 501.283235 74.291106 
Q 501.283235 76.283138 500.42386 77.36595 
Q 499.564485 78.448763 497.984954 78.448763 
Q 496.400267 78.448763 495.540892 77.36595 
Q 494.681517 76.283138 494.681517 74.291106 
Q 494.681517 72.2922 495.540892 71.211106 
Q 496.400267 70.128294 497.984954 70.128294 
Q 499.564485 70.128294 500.42386 71.211106 
Q 501.283235 72.2922 501.283235 74.291106 
z
M 502.931517 76.214388 
L 504.86511 76.214388 
L 504.86511 78.292356 
L 502.931517 78.292356 
L 502.931517 76.214388 
z
M 511.047454 74.273919 
Q 511.047454 72.770013 510.765579 72.156419 
Q 510.483704 71.541106 509.816829 71.541106 
Q 509.151673 71.541106 508.86636 72.156419 
Q 508.581048 72.770013 508.581048 74.273919 
Q 508.581048 75.795013 508.86636 76.418919 
Q 509.151673 77.041106 509.816829 77.041106 
Q 510.478548 77.041106 510.762142 76.418919 
Q 511.047454 75.795013 511.047454 74.273919 
z
M 513.11511 74.291106 
Q 513.11511 76.283138 512.255735 77.36595 
Q 511.39636 78.448763 509.816829 78.448763 
Q 508.232142 78.448763 507.372767 77.36595 
Q 506.513392 76.283138 506.513392 74.291106 
Q 506.513392 72.2922 507.372767 71.211106 
Q 508.232142 70.128294 509.816829 70.128294 
Q 511.39636 70.128294 512.255735 71.211106 
Q 513.11511 72.2922 513.11511 74.291106 
z
M 514.80636 70.272669 
L 519.947142 70.272669 
L 519.947142 71.793763 
L 516.45636 71.793763 
L 516.45636 73.0347 
Q 516.691829 72.969388 516.930735 72.935013 
Q 517.169642 72.898919 517.427454 72.898919 
Q 518.893548 72.898919 519.709954 73.632825 
Q 520.52636 74.366731 520.52636 75.676419 
Q 520.52636 76.975794 519.637767 77.713138 
Q 518.749173 78.448763 517.169642 78.448763 
Q 516.487298 78.448763 515.818704 78.316419 
Q 515.15011 78.184075 514.49011 77.91595 
L 514.49011 76.288294 
Q 515.144954 76.6647 515.732767 76.853763 
Q 516.320579 77.041106 516.843079 77.041106 
Q 517.594173 77.041106 518.025579 76.673294 
Q 518.458704 76.305481 518.458704 75.676419 
Q 518.458704 75.0422 518.025579 74.677825 
Q 517.594173 74.311731 516.843079 74.311731 
Q 516.396204 74.311731 515.890892 74.428606 
Q 515.387298 74.543763 514.80636 74.784388 
L 514.80636 70.272669 
z
M 522.39636 78.115325 
L 522.39636 76.632044 
Q 522.889642 76.864075 523.339954 76.979231 
Q 523.791985 77.094388 524.231985 77.094388 
Q 525.156673 77.094388 525.672298 76.5822 
Q 526.187923 76.068294 526.279017 75.059388 
Q 525.914642 75.327513 525.500423 75.461575 
Q 525.086204 75.595638 524.603235 75.595638 
Q 523.37261 75.595638 522.618079 74.878919 
Q 521.863548 74.1622 521.863548 72.991731 
Q 521.863548 71.695794 522.704017 70.9172 
Q 523.544485 70.138606 524.957298 70.138606 
Q 526.526517 70.138606 527.385892 71.197356 
Q 528.245267 72.254388 528.245267 74.187981 
Q 528.245267 76.176575 527.239798 77.312669 
Q 526.236048 78.448763 524.484642 78.448763 
Q 523.920892 78.448763 523.405267 78.364544 
Q 522.889642 78.282044 522.39636 78.115325 
z
M 524.946985 74.253294 
Q 525.49011 74.253294 525.763392 73.902669 
Q 526.036673 73.550325 526.036673 72.845638 
Q 526.036673 72.147825 525.763392 71.793763 
Q 525.49011 71.437981 524.946985 71.437981 
Q 524.40386 71.437981 524.130579 71.793763 
Q 523.857298 72.147825 523.857298 72.845638 
Q 523.857298 73.550325 524.130579 73.902669 
Q 524.40386 74.253294 524.946985 74.253294 
z
" style="fill: #e6edf6; stroke: #0b1220; stroke-width: 2.5"/>
    <path d="M 486.355892 71.395013 
L 486.355892 73.297669 
L 489.159173 73.297669 
L 489.159173 74.564388 
L 486.355892 74.564388 
L 486.355892 76.465325 
L 485.077142 76.465325 
L 485.077142 74.564388 
L 482.27386 74.564388 
L 482.27386 73.297669 
L 485.077142 73.297669 
L 485.077142 71.395013 
L 486.355892 71.395013 
z
M 482.27386 77.013606 
L 489.159173 77.013606 
L 489.159173 78.292356 
L 482.27386 78.292356 
L 482.27386 77.013606 
z
M 499.215579 74.273919 
Q 499.215579 72.770013 498.933704 72.156419 
Q 498.651829 71.541106 497.984954 71.541106 
Q 497.319798 71.541106 497.034485 72.156419 
Q 496.749173 72.770013 496.749173 74.273919 
Q 496.749173 75.795013 497.034485 76.418919 
Q 497.319798 77.041106 497.984954 77.041106 
Q 498.646673 77.041106 498.930267 76.418919 
Q 499.215579 75.795013 499.215579 74.273919 
z
M 501.283235 74.291106 
Q 501.283235 76.283138 500.42386 77.36595 
Q 499.564485 78.448763 497.984954 78.448763 
Q 496.400267 78.448763 495.540892 77.36595 
Q 494.681517 76.283138 494.681517 74.291106 
Q 494.681517 72.2922 495.540892 71.211106 
Q 496.400267 70.128294 497.984954 70.128294 
Q 499.564485 70.128294 500.42386 71.211106 
Q 501.283235 72.2922 501.283235 74.291106 
z
M 502.931517 76.214388 
L 504.86511 76.214388 
L 504.86511 78.292356 
L 502.931517 78.292356 
L 502.931517 76.214388 
z
M 511.047454 74.273919 
Q 511.047454 72.770013 510.765579 72.156419 
Q 510.483704 71.541106 509.816829 71.541106 
Q 509.151673 71.541106 508.86636 72.156419 
Q 508.581048 72.770013 508.581048 74.273919 
Q 508.581048 75.795013 508.86636 76.418919 
Q 509.151673 77.041106 509.816829 77.041106 
Q 510.478548 77.041106 510.762142 76.418919 
Q 511.047454 75.795013 511.047454 74.273919 
z
M 513.11511 74.291106 
Q 513.11511 76.283138 512.255735 77.36595 
Q 511.39636 78.448763 509.816829 78.448763 
Q 508.232142 78.448763 507.372767 77.36595 
Q 506.513392 76.283138 506.513392 74.291106 
Q 506.513392 72.2922 507.372767 71.211106 
Q 508.232142 70.128294 509.816829 70.128294 
Q 511.39636 70.128294 512.255735 71.211106 
Q 513.11511 72.2922 513.11511 74.291106 
z
M 514.80636 70.272669 
L 519.947142 70.272669 
L 519.947142 71.793763 
L 516.45636 71.793763 
L 516.45636 73.0347 
Q 516.691829 72.969388 516.930735 72.935013 
Q 517.169642 72.898919 517.427454 72.898919 
Q 518.893548 72.898919 519.709954 73.632825 
Q 520.52636 74.366731 520.52636 75.676419 
Q 520.52636 76.975794 519.637767 77.713138 
Q 518.749173 78.448763 517.169642 78.448763 
Q 516.487298 78.448763 515.818704 78.316419 
Q 515.15011 78.184075 514.49011 77.91595 
L 514.49011 76.288294 
Q 515.144954 76.6647 515.732767 76.853763 
Q 516.320579 77.041106 516.843079 77.041106 
Q 517.594173 77.041106 518.025579 76.673294 
Q 518.458704 76.305481 518.458704 75.676419 
Q 518.458704 75.0422 518.025579 74.677825 
Q 517.594173 74.311731 516.843079 74.311731 
Q 516.396204 74.311731 515.890892 74.428606 
Q 515.387298 74.543763 514.80636 74.784388 
L 514.80636 70.272669 
z
M 522.39636 78.115325 
L 522.39636 76.632044 
Q 522.889642 76.864075 523.339954 76.979231 
Q 523.791985 77.094388 524.231985 77.094388 
Q 525.156673 77.094388 525.672298 76.5822 
Q 526.187923 76.068294 526.279017 75.059388 
Q 525.914642 75.327513 525.500423 75.461575 
Q 525.086204 75.595638 524.603235 75.595638 
Q 523.37261 75.595638 522.618079 74.878919 
Q 521.863548 74.1622 521.863548 72.991731 
Q 521.863548 71.695794 522.704017 70.9172 
Q 523.544485 70.138606 524.957298 70.138606 
Q 526.526517 70.138606 527.385892 71.197356 
Q 528.245267 72.254388 528.245267 74.187981 
Q 528.245267 76.176575 527.239798 77.312669 
Q 526.236048 78.448763 524.484642 78.448763 
Q 523.920892 78.448763 523.405267 78.364544 
Q 522.889642 78.282044 522.39636 78.115325 
z
M 524.946985 74.253294 
Q 525.49011 74.253294 525.763392 73.902669 
Q 526.036673 73.550325 526.036673 72.845638 
Q 526.036673 72.147825 525.763392 71.793763 
Q 525.49011 71.437981 524.946985 71.437981 
Q 524.40386 71.437981 524.130579 71.793763 
Q 523.857298 72.147825 523.857298 72.845638 
Q 523.857298 73.550325 524.130579 73.902669 
Q 524.40386 74.253294 524.946985 74.253294 
z
" style="fill: #e6edf6"/>
   </g>
   <g id="LineCollection_1">
    <path d="M 149.811608 156.441871 
L 149.811608 156.441871 
" clip-path="url(#p16e221a68b)" style="fill: none; stroke: #e6edf6; stroke-opacity: 0.85; stroke-width: 1.6"/>
    <path d="M 327.42 124.427046 
L 327.42 124.427046 
" clip-path="url(#p16e221a68b)" style="fill: none; stroke: #e6edf6; stroke-opacity: 0.85; stroke-width: 1.6"/>
    <path d="M 505.028392 160.635095 
L 505.028392 87.966505 
" clip-path="url(#p16e221a68b)" style="fill: none; stroke: #e6edf6; stroke-opacity: 0.85; stroke-width: 1.6"/>
   </g>
   <g id="line2d_23">
    <defs>
     <path id="m8a20e8b6a1" d="M 6 0 
L -6 -0 
" style="stroke: #e6edf6; stroke-opacity: 0.85; stroke-width: 1.6"/>
    </defs>
    <g clip-path="url(#p16e221a68b)">
     <use xlink:href="#m8a20e8b6a1" x="149.811608" y="156.441871" style="fill: #1f77b4; fill-opacity: 0.85; stroke: #e6edf6; stroke-opacity: 0.85; stroke-width: 1.6"/>
     <use xlink:href="#m8a20e8b6a1" x="327.42" y="124.427046" style="fill: #1f77b4; fill-opacity: 0.85; stroke: #e6edf6; stroke-opacity: 0.85; stroke-width: 1.6"/>
     <use xlink:href="#m8a20e8b6a1" x="505.028392" y="160.635095" style="fill: #1f77b4; fill-opacity: 0.85; stroke: #e6edf6; stroke-opacity: 0.85; stroke-width: 1.6"/>
    </g>
   </g>
   <g id="line2d_24">
    <g clip-path="url(#p16e221a68b)">
     <use xlink:href="#m8a20e8b6a1" x="149.811608" y="156.441871" style="fill: #1f77b4; fill-opacity: 0.85; stroke: #e6edf6; stroke-opacity: 0.85; stroke-width: 1.6"/>
     <use xlink:href="#m8a20e8b6a1" x="327.42" y="124.427046" style="fill: #1f77b4; fill-opacity: 0.85; stroke: #e6edf6; stroke-opacity: 0.85; stroke-width: 1.6"/>
     <use xlink:href="#m8a20e8b6a1" x="505.028392" y="87.966505" style="fill: #1f77b4; fill-opacity: 0.85; stroke: #e6edf6; stroke-opacity: 0.85; stroke-width: 1.6"/>
    </g>
   </g>
  </g>
  <g id="text_17">
   <!-- HUD absolute reward -->
   <g style="fill: #e6edf6" transform="translate(73.44 26.208) scale(0.2 -0.2)">
    <defs>
     <path id="DejaVuSans-Bold-2b" d="M 588 4666 
L 1791 4666 
L 1791 2888 
L 3566 2888 
L 3566 4666 
L 4769 4666 
L 4769 0 
L 3566 0 
L 3566 1978 
L 1791 1978 
L 1791 0 
L 588 0 
L 588 4666 
z
" transform="scale(0.015625)"/>
     <path id="DejaVuSans-Bold-38" d="M 588 4666 
L 1791 4666 
L 1791 1869 
Q 1791 1291 1980 1042 
Q 2169 794 2597 794 
Q 3028 794 3217 1042 
Q 3406 1291 3406 1869 
L 3406 4666 
L 4609 4666 
L 4609 1869 
Q 4609 878 4112 393 
Q 3616 -91 2597 -91 
Q 1581 -91 1084 393 
Q 588 878 588 1869 
L 588 4666 
z
" transform="scale(0.015625)"/>
     <path id="DejaVuSans-Bold-27" d="M 1791 3756 
L 1791 909 
L 2222 909 
Q 2959 909 3348 1275 
Q 3738 1641 3738 2338 
Q 3738 3031 3350 3393 
Q 2963 3756 2222 3756 
L 1791 3756 
z
M 588 4666 
L 1856 4666 
Q 2919 4666 3439 4514 
Q 3959 4363 4331 4000 
Q 4659 3684 4818 3271 
Q 4978 2859 4978 2338 
Q 4978 1809 4818 1395 
Q 4659 981 4331 666 
Q 3956 303 3431 151 
Q 2906 0 1856 0 
L 588 0 
L 588 4666 
z
" transform="scale(0.015625)"/>
     <path id="DejaVuSans-Bold-3" transform="scale(0.015625)"/>
     <path id="DejaVuSans-Bold-44" d="M 2106 1575 
Q 1756 1575 1579 1456 
Q 1403 1338 1403 1106 
Q 1403 894 1545 773 
Q 1688 653 1941 653 
Q 2256 653 2472 879 
Q 2688 1106 2688 1447 
L 2688 1575 
L 2106 1575 
z
M 3816 1997 
L 3816 0 
L 2688 0 
L 2688 519 
Q 2463 200 2181 54 
Q 1900 -91 1497 -91 
Q 953 -91 614 226 
Q 275 544 275 1050 
Q 275 1666 698 1953 
Q 1122 2241 2028 2241 
L 2688 2241 
L 2688 2328 
Q 2688 2594 2478 2717 
Q 2269 2841 1825 2841 
Q 1466 2841 1156 2769 
Q 847 2697 581 2553 
L 581 3406 
Q 941 3494 1303 3539 
Q 1666 3584 2028 3584 
Q 2975 3584 3395 3211 
Q 3816 2838 3816 1997 
z
" transform="scale(0.015625)"/>
     <path id="DejaVuSans-Bold-45" d="M 2400 722 
Q 2759 722 2948 984 
Q 3138 1247 3138 1747 
Q 3138 2247 2948 2509 
Q 2759 2772 2400 2772 
Q 2041 2772 1848 2508 
Q 1656 2244 1656 1747 
Q 1656 1250 1848 986 
Q 2041 722 2400 722 
z
M 1656 2988 
Q 1888 3294 2169 3439 
Q 2450 3584 2816 3584 
Q 3463 3584 3878 3070 
Q 4294 2556 4294 1747 
Q 4294 938 3878 423 
Q 3463 -91 2816 -91 
Q 2450 -91 2169 54 
Q 1888 200 1656 506 
L 1656 0 
L 538 0 
L 538 4863 
L 1656 4863 
L 1656 2988 
z
" transform="scale(0.015625)"/>
     <path id="DejaVuSans-Bold-56" d="M 3272 3391 
L 3272 2541 
Q 2913 2691 2578 2766 
Q 2244 2841 1947 2841 
Q 1628 2841 1473 2761 
Q 1319 2681 1319 2516 
Q 1319 2381 1436 2309 
Q 1553 2238 1856 2203 
L 2053 2175 
Q 2913 2066 3209 1816 
Q 3506 1566 3506 1031 
Q 3506 472 3093 190 
Q 2681 -91 1863 -91 
Q 1516 -91 1145 -36 
Q 775 19 384 128 
L 384 978 
Q 719 816 1070 734 
Q 1422 653 1784 653 
Q 2113 653 2278 743 
Q 2444 834 2444 1013 
Q 2444 1163 2330 1236 
Q 2216 1309 1875 1350 
L 1678 1375 
Q 931 1469 631 1722 
Q 331 1975 331 2491 
Q 331 3047 712 3315 
Q 1094 3584 1881 3584 
Q 2191 3584 2531 3537 
Q 2872 3491 3272 3391 
z
" transform="scale(0.015625)"/>
     <path id="DejaVuSans-Bold-52" d="M 2203 2784 
Q 1831 2784 1636 2517 
Q 1441 2250 1441 1747 
Q 1441 1244 1636 976 
Q 1831 709 2203 709 
Q 2569 709 2762 976 
Q 2956 1244 2956 1747 
Q 2956 2250 2762 2517 
Q 2569 2784 2203 2784 
z
M 2203 3584 
Q 3106 3584 3614 3096 
Q 4122 2609 4122 1747 
Q 4122 884 3614 396 
Q 3106 -91 2203 -91 
Q 1297 -91 786 396 
Q 275 884 275 1747 
Q 275 2609 786 3096 
Q 1297 3584 2203 3584 
z
" transform="scale(0.015625)"/>
     <path id="DejaVuSans-Bold-4f" d="M 538 4863 
L 1656 4863 
L 1656 0 
L 538 0 
L 538 4863 
z
" transform="scale(0.015625)"/>
     <path id="DejaVuSans-Bold-58" d="M 500 1363 
L 500 3500 
L 1625 3500 
L 1625 3150 
Q 1625 2866 1622 2436 
Q 1619 2006 1619 1863 
Q 1619 1441 1641 1255 
Q 1663 1069 1716 984 
Q 1784 875 1895 815 
Q 2006 756 2150 756 
Q 2500 756 2700 1025 
Q 2900 1294 2900 1772 
L 2900 3500 
L 4019 3500 
L 4019 0 
L 2900 0 
L 2900 506 
Q 2647 200 2364 54 
Q 2081 -91 1741 -91 
Q 1134 -91 817 281 
Q 500 653 500 1363 
z
" transform="scale(0.015625)"/>
     <path id="DejaVuSans-Bold-57" d="M 1759 4494 
L 1759 3500 
L 2913 3500 
L 2913 2700 
L 1759 2700 
L 1759 1216 
Q 1759 972 1856 886 
Q 1953 800 2241 800 
L 2816 800 
L 2816 0 
L 1856 0 
Q 1194 0 917 276 
Q 641 553 641 1216 
L 641 2700 
L 84 2700 
L 84 3500 
L 641 3500 
L 641 4494 
L 1759 4494 
z
" transform="scale(0.015625)"/>
     <path id="DejaVuSans-Bold-48" d="M 4031 1759 
L 4031 1441 
L 1416 1441 
Q 1456 1047 1700 850 
Q 1944 653 2381 653 
Q 2734 653 3104 758 
Q 3475 863 3866 1075 
L 3866 213 
Q 3469 63 3072 -14 
Q 2675 -91 2278 -91 
Q 1328 -91 801 392 
Q 275 875 275 1747 
Q 275 2603 792 3093 
Q 1309 3584 2216 3584 
Q 3041 3584 3536 3087 
Q 4031 2591 4031 1759 
z
M 2881 2131 
Q 2881 2450 2695 2645 
Q 2509 2841 2209 2841 
Q 1884 2841 1681 2658 
Q 1478 2475 1428 2131 
L 2881 2131 
z
" transform="scale(0.015625)"/>
     <path id="DejaVuSans-Bold-55" d="M 3138 2547 
Q 2991 2616 2845 2648 
Q 2700 2681 2553 2681 
Q 2122 2681 1889 2404 
Q 1656 2128 1656 1613 
L 1656 0 
L 538 0 
L 538 3500 
L 1656 3500 
L 1656 2925 
Q 1872 3269 2151 3426 
Q 2431 3584 2822 3584 
Q 2878 3584 2943 3579 
Q 3009 3575 3134 3559 
L 3138 2547 
z
" transform="scale(0.015625)"/>
     <path id="DejaVuSans-Bold-5a" d="M 225 3500 
L 1313 3500 
L 1900 1088 
L 2491 3500 
L 3425 3500 
L 4013 1113 
L 4603 3500 
L 5691 3500 
L 4769 0 
L 3547 0 
L 2956 2406 
L 2369 0 
L 1147 0 
L 225 3500 
z
" transform="scale(0.015625)"/>
     <path id="DejaVuSans-Bold-47" d="M 2919 2988 
L 2919 4863 
L 4044 4863 
L 4044 0 
L 2919 0 
L 2919 506 
Q 2688 197 2409 53 
Q 2131 -91 1766 -91 
Q 1119 -91 703 423 
Q 288 938 288 1747 
Q 288 2556 703 3070 
Q 1119 3584 1766 3584 
Q 2128 3584 2408 3439 
Q 2688 3294 2919 2988 
z
M 2181 722 
Q 2541 722 2730 984 
Q 2919 1247 2919 1747 
Q 2919 2247 2730 2509 
Q 2541 2772 2181 2772 
Q 1825 2772 1636 2509 
Q 1447 2247 1447 1747 
Q 1447 1247 1636 984 
Q 1825 722 2181 722 
z
" transform="scale(0.015625)"/>
    </defs>
    <use xlink:href="#DejaVuSans-Bold-2b"/>
    <use xlink:href="#DejaVuSans-Bold-38" transform="translate(83.6875 0)"/>
    <use xlink:href="#DejaVuSans-Bold-27" transform="translate(164.890625 0)"/>
    <use xlink:href="#DejaVuSans-Bold-3" transform="translate(247.90625 0)"/>
    <use xlink:href="#DejaVuSans-Bold-44" transform="translate(282.71875 0)"/>
    <use xlink:href="#DejaVuSans-Bold-45" transform="translate(350.203125 0)"/>
    <use xlink:href="#DejaVuSans-Bold-56" transform="translate(421.78125 0)"/>
    <use xlink:href="#DejaVuSans-Bold-52" transform="translate(481.296875 0)"/>
    <use xlink:href="#DejaVuSans-Bold-4f" transform="translate(550 0)"/>
    <use xlink:href="#DejaVuSans-Bold-58" transform="translate(584.28125 0)"/>
    <use xlink:href="#DejaVuSans-Bold-57" transform="translate(655.46875 0)"/>
    <use xlink:href="#DejaVuSans-Bold-48" transform="translate(703.265625 0)"/>
    <use xlink:href="#DejaVuSans-Bold-3" transform="translate(771.09375 0)"/>
    <use xlink:href="#DejaVuSans-Bold-55" transform="translate(805.90625 0)"/>
    <use xlink:href="#DejaVuSans-Bold-48" transform="translate(855.21875 0)"/>
    <use xlink:href="#DejaVuSans-Bold-5a" transform="translate(923.046875 0)"/>
    <use xlink:href="#DejaVuSans-Bold-44" transform="translate(1015.4375 0)"/>
    <use xlink:href="#DejaVuSans-Bold-55" transform="translate(1082.921875 0)"/>
    <use xlink:href="#DejaVuSans-Bold-47" transform="translate(1132.234375 0)"/>
   </g>
  </g>
  <g id="text_18">
   <!-- Mean episode reward across the 6-task mobility taskset (higher is better). -->
   <g style="fill: #8aa0bd" transform="translate(73.44 52.416) scale(0.11 -0.11)">
    <defs>
     <path id="DejaVuSans-30" d="M 628 4666 
L 1569 4666 
L 2759 1491 
L 3956 4666 
L 4897 4666 
L 4897 0 
L 4281 0 
L 4281 4097 
L 3078 897 
L 2444 897 
L 1241 4097 
L 1241 0 
L 628 0 
L 628 4666 
z
" transform="scale(0.015625)"/>
     <path id="DejaVuSans-53" d="M 1159 525 
L 1159 -1331 
L 581 -1331 
L 581 3500 
L 1159 3500 
L 1159 2969 
Q 1341 3281 1617 3432 
Q 1894 3584 2278 3584 
Q 2916 3584 3314 3078 
Q 3713 2572 3713 1747 
Q 3713 922 3314 415 
Q 2916 -91 2278 -91 
Q 1894 -91 1617 61 
Q 1341 213 1159 525 
z
M 3116 1747 
Q 3116 2381 2855 2742 
Q 2594 3103 2138 3103 
Q 1681 3103 1420 2742 
Q 1159 2381 1159 1747 
Q 1159 1113 1420 752 
Q 1681 391 2138 391 
Q 2594 391 2855 752 
Q 3116 1113 3116 1747 
z
" transform="scale(0.015625)"/>
     <path id="DejaVuSans-19" d="M 2113 2584 
Q 1688 2584 1439 2293 
Q 1191 2003 1191 1497 
Q 1191 994 1439 701 
Q 1688 409 2113 409 
Q 2538 409 2786 701 
Q 3034 994 3034 1497 
Q 3034 2003 2786 2293 
Q 2538 2584 2113 2584 
z
M 3366 4563 
L 3366 3988 
Q 3128 4100 2886 4159 
Q 2644 4219 2406 4219 
Q 1781 4219 1451 3797 
Q 1122 3375 1075 2522 
Q 1259 2794 1537 2939 
Q 1816 3084 2150 3084 
Q 2853 3084 3261 2657 
Q 3669 2231 3669 1497 
Q 3669 778 3244 343 
Q 2819 -91 2113 -91 
Q 1303 -91 875 529 
Q 447 1150 447 2328 
Q 447 3434 972 4092 
Q 1497 4750 2381 4750 
Q 2619 4750 2861 4703 
Q 3103 4656 3366 4563 
z
" transform="scale(0.015625)"/>
     <path id="DejaVuSans-4e" d="M 581 4863 
L 1159 4863 
L 1159 1991 
L 2875 3500 
L 3609 3500 
L 1753 1863 
L 3688 0 
L 2938 0 
L 1159 1709 
L 1159 0 
L 581 0 
L 581 4863 
z
" transform="scale(0.015625)"/>
     <path id="DejaVuSans-5c" d="M 2059 -325 
Q 1816 -950 1584 -1140 
Q 1353 -1331 966 -1331 
L 506 -1331 
L 506 -850 
L 844 -850 
Q 1081 -850 1212 -737 
Q 1344 -625 1503 -206 
L 1606 56 
L 191 3500 
L 800 3500 
L 1894 763 
L 2988 3500 
L 3597 3500 
L 2059 -325 
z
" transform="scale(0.015625)"/>
     <path id="DejaVuSans-b" d="M 1984 4856 
Q 1566 4138 1362 3434 
Q 1159 2731 1159 2009 
Q 1159 1288 1364 580 
Q 1569 -128 1984 -844 
L 1484 -844 
Q 1016 -109 783 600 
Q 550 1309 550 2009 
Q 550 2706 781 3412 
Q 1013 4119 1484 4856 
L 1984 4856 
z
" transform="scale(0.015625)"/>
     <path id="DejaVuSans-4a" d="M 2906 1791 
Q 2906 2416 2648 2759 
Q 2391 3103 1925 3103 
Q 1463 3103 1205 2759 
Q 947 2416 947 1791 
Q 947 1169 1205 825 
Q 1463 481 1925 481 
Q 2391 481 2648 825 
Q 2906 1169 2906 1791 
z
M 3481 434 
Q 3481 -459 3084 -895 
Q 2688 -1331 1869 -1331 
Q 1566 -1331 1297 -1286 
Q 1028 -1241 775 -1147 
L 775 -588 
Q 1028 -725 1275 -790 
Q 1522 -856 1778 -856 
Q 2344 -856 2625 -561 
Q 2906 -266 2906 331 
L 2906 616 
Q 2728 306 2450 153 
Q 2172 0 1784 0 
Q 1141 0 747 490 
Q 353 981 353 1791 
Q 353 2603 747 3093 
Q 1141 3584 1784 3584 
Q 2172 3584 2450 3431 
Q 2728 3278 2906 2969 
L 2906 3500 
L 3481 3500 
L 3481 434 
z
" transform="scale(0.015625)"/>
     <path id="DejaVuSans-c" d="M 513 4856 
L 1013 4856 
Q 1481 4119 1714 3412 
Q 1947 2706 1947 2009 
Q 1947 1309 1714 600 
Q 1481 -109 1013 -844 
L 513 -844 
Q 928 -128 1133 580 
Q 1338 1288 1338 2009 
Q 1338 2731 1133 3434 
Q 928 4138 513 4856 
z
" transform="scale(0.015625)"/>
    </defs>
    <use xlink:href="#DejaVuSans-30"/>
    <use xlink:href="#DejaVuSans-48" transform="translate(86.28125 0)"/>
    <use xlink:href="#DejaVuSans-44" transform="translate(147.8125 0)"/>
    <use xlink:href="#DejaVuSans-51" transform="translate(209.09375 0)"/>
    <use xlink:href="#DejaVuSans-3" transform="translate(272.46875 0)"/>
    <use xlink:href="#DejaVuSans-48" transform="translate(304.25 0)"/>
    <use xlink:href="#DejaVuSans-53" transform="translate(365.78125 0)"/>
    <use xlink:href="#DejaVuSans-4c" transform="translate(429.265625 0)"/>
    <use xlink:href="#DejaVuSans-56" transform="translate(457.046875 0)"/>
    <use xlink:href="#DejaVuSans-52" transform="translate(509.140625 0)"/>
    <use xlink:href="#DejaVuSans-47" transform="translate(570.328125 0)"/>
    <use xlink:href="#DejaVuSans-48" transform="translate(633.8125 0)"/>
    <use xlink:href="#DejaVuSans-3" transform="translate(695.34375 0)"/>
    <use xlink:href="#DejaVuSans-55" transform="translate(727.125 0)"/>
    <use xlink:href="#DejaVuSans-48" transform="translate(766.03125 0)"/>
    <use xlink:href="#DejaVuSans-5a" transform="translate(827.5625 0)"/>
    <use xlink:href="#DejaVuSans-44" transform="translate(909.34375 0)"/>
    <use xlink:href="#DejaVuSans-55" transform="translate(970.625 0)"/>
    <use xlink:href="#DejaVuSans-47" transform="translate(1009.984375 0)"/>
    <use xlink:href="#DejaVuSans-3" transform="translate(1073.46875 0)"/>
    <use xlink:href="#DejaVuSans-44" transform="translate(1105.25 0)"/>
    <use xlink:href="#DejaVuSans-46" transform="translate(1166.53125 0)"/>
    <use xlink:href="#DejaVuSans-55" transform="translate(1221.515625 0)"/>
    <use xlink:href="#DejaVuSans-52" transform="translate(1260.421875 0)"/>
    <use xlink:href="#DejaVuSans-56" transform="translate(1321.609375 0)"/>
    <use xlink:href="#DejaVuSans-56" transform="translate(1373.703125 0)"/>
    <use xlink:href="#DejaVuSans-3" transform="translate(1425.796875 0)"/>
    <use xlink:href="#DejaVuSans-57" transform="translate(1457.578125 0)"/>
    <use xlink:href="#DejaVuSans-4b" transform="translate(1496.78125 0)"/>
    <use xlink:href="#DejaVuSans-48" transform="translate(1560.15625 0)"/>
    <use xlink:href="#DejaVuSans-3" transform="translate(1621.6875 0)"/>
    <use xlink:href="#DejaVuSans-19" transform="translate(1653.46875 0)"/>
    <use xlink:href="#DejaVuSans-10" transform="translate(1717.09375 0)"/>
    <use xlink:href="#DejaVuSans-57" transform="translate(1753.171875 0)"/>
    <use xlink:href="#DejaVuSans-44" transform="translate(1792.375 0)"/>
    <use xlink:href="#DejaVuSans-56" transform="translate(1853.65625 0)"/>
    <use xlink:href="#DejaVuSans-4e" transform="translate(1905.75 0)"/>
    <use xlink:href="#DejaVuSans-3" transform="translate(1963.65625 0)"/>
    <use xlink:href="#DejaVuSans-50" transform="translate(1995.4375 0)"/>
    <use xlink:href="#DejaVuSans-52" transform="translate(2092.84375 0)"/>
    <use xlink:href="#DejaVuSans-45" transform="translate(2154.03125 0)"/>
    <use xlink:href="#DejaVuSans-4c" transform="translate(2217.515625 0)"/>
    <use xlink:href="#DejaVuSans-4f" transform="translate(2245.296875 0)"/>
    <use xlink:href="#DejaVuSans-4c" transform="translate(2273.078125 0)"/>
    <use xlink:href="#DejaVuSans-57" transform="translate(2300.859375 0)"/>
    <use xlink:href="#DejaVuSans-5c" transform="translate(2340.0625 0)"/>
    <use xlink:href="#DejaVuSans-3" transform="translate(2399.25 0)"/>
    <use xlink:href="#DejaVuSans-57" transform="translate(2431.03125 0)"/>
    <use xlink:href="#DejaVuSans-44" transform="translate(2470.234375 0)"/>
    <use xlink:href="#DejaVuSans-56" transform="translate(2531.515625 0)"/>
    <use xlink:href="#DejaVuSans-4e" transform="translate(2583.609375 0)"/>
    <use xlink:href="#DejaVuSans-56" transform="translate(2641.515625 0)"/>
    <use xlink:href="#DejaVuSans-48" transform="translate(2693.609375 0)"/>
    <use xlink:href="#DejaVuSans-57" transform="translate(2755.140625 0)"/>
    <use xlink:href="#DejaVuSans-3" transform="translate(2794.34375 0)"/>
    <use xlink:href="#DejaVuSans-b" transform="translate(2826.125 0)"/>
    <use xlink:href="#DejaVuSans-4b" transform="translate(2865.140625 0)"/>
    <use xlink:href="#DejaVuSans-4c" transform="translate(2928.515625 0)"/>
    <use xlink:href="#DejaVuSans-4a" transform="translate(2956.296875 0)"/>
    <use xlink:href="#DejaVuSans-4b" transform="translate(3019.78125 0)"/>
    <use xlink:href="#DejaVuSans-48" transform="translate(3083.15625 0)"/>
    <use xlink:href="#DejaVuSans-55" transform="translate(3144.6875 0)"/>
    <use xlink:href="#DejaVuSans-3" transform="translate(3185.796875 0)"/>
    <use xlink:href="#DejaVuSans-4c" transform="translate(3217.578125 0)"/>
    <use xlink:href="#DejaVuSans-56" transform="translate(3245.359375 0)"/>
    <use xlink:href="#DejaVuSans-3" transform="translate(3297.453125 0)"/>
    <use xlink:href="#DejaVuSans-45" transform="translate(3329.234375 0)"/>
    <use xlink:href="#DejaVuSans-48" transform="translate(3392.71875 0)"/>
    <use xlink:href="#DejaVuSans-57" transform="translate(3454.25 0)"/>
    <use xlink:href="#DejaVuSans-57" transform="translate(3493.453125 0)"/>
    <use xlink:href="#DejaVuSans-48" transform="translate(3532.65625 0)"/>
    <use xlink:href="#DejaVuSans-55" transform="translate(3594.1875 0)"/>
    <use xlink:href="#DejaVuSans-c" transform="translate(3635.296875 0)"/>
    <use xlink:href="#DejaVuSans-11" transform="translate(3674.3125 0)"/>
   </g>
  </g>
  <g id="text_19">
   <!-- Baseline &amp; heuristic from benchmark_nearest_baseline.py.  RL-trained model currently matches the heuristic (within noise). -->
   <g style="fill: #8aa0bd" transform="translate(73.44 365.04) scale(0.085 -0.085)">
    <defs>
     <path id="DejaVuSans-25" d="M 1259 2228 
L 1259 519 
L 2272 519 
Q 2781 519 3026 730 
Q 3272 941 3272 1375 
Q 3272 1813 3026 2020 
Q 2781 2228 2272 2228 
L 1259 2228 
z
M 1259 4147 
L 1259 2741 
L 2194 2741 
Q 2656 2741 2882 2914 
Q 3109 3088 3109 3444 
Q 3109 3797 2882 3972 
Q 2656 4147 2194 4147 
L 1259 4147 
z
M 628 4666 
L 2241 4666 
Q 2963 4666 3353 4366 
Q 3744 4066 3744 3513 
Q 3744 3084 3544 2831 
Q 3344 2578 2956 2516 
Q 3422 2416 3680 2098 
Q 3938 1781 3938 1306 
Q 3938 681 3513 340 
Q 3088 0 2303 0 
L 628 0 
L 628 4666 
z
" transform="scale(0.015625)"/>
     <path id="DejaVuSans-9" d="M 1556 2509 
Q 1272 2256 1139 2004 
Q 1006 1753 1006 1478 
Q 1006 1022 1337 719 
Q 1669 416 2169 416 
Q 2466 416 2725 514 
Q 2984 613 3213 813 
L 1556 2509 
z
M 1997 2859 
L 3584 1234 
Q 3769 1513 3872 1830 
Q 3975 2147 3994 2503 
L 4575 2503 
Q 4538 2091 4375 1687 
Q 4213 1284 3922 891 
L 4794 0 
L 4006 0 
L 3559 459 
Q 3234 181 2878 45 
Q 2522 -91 2113 -91 
Q 1359 -91 881 339 
Q 403 769 403 1441 
Q 403 1841 612 2192 
Q 822 2544 1241 2853 
Q 1091 3050 1012 3245 
Q 934 3441 934 3628 
Q 934 4134 1281 4442 
Q 1628 4750 2203 4750 
Q 2463 4750 2720 4694 
Q 2978 4638 3244 4525 
L 3244 3956 
Q 2972 4103 2725 4179 
Q 2478 4256 2266 4256 
Q 1938 4256 1733 4082 
Q 1528 3909 1528 3634 
Q 1528 3475 1620 3314 
Q 1713 3153 1997 2859 
z
" transform="scale(0.015625)"/>
     <path id="DejaVuSans-49" d="M 2375 4863 
L 2375 4384 
L 1825 4384 
Q 1516 4384 1395 4259 
Q 1275 4134 1275 3809 
L 1275 3500 
L 2222 3500 
L 2222 3053 
L 1275 3053 
L 1275 0 
L 697 0 
L 697 3053 
L 147 3053 
L 147 3500 
L 697 3500 
L 697 3744 
Q 697 4328 969 4595 
Q 1241 4863 1831 4863 
L 2375 4863 
z
" transform="scale(0.015625)"/>
     <path id="DejaVuSans-42" d="M 3263 -1063 
L 3263 -1509 
L -63 -1509 
L -63 -1063 
L 3263 -1063 
z
" transform="scale(0.015625)"/>
    </defs>
    <use xlink:href="#DejaVuSans-25"/>
    <use xlink:href="#DejaVuSans-44" transform="translate(68.609375 0)"/>
    <use xlink:href="#DejaVuSans-56" transform="translate(129.890625 0)"/>
    <use xlink:href="#DejaVuSans-48" transform="translate(181.984375 0)"/>
    <use xlink:href="#DejaVuSans-4f" transform="translate(243.515625 0)"/>
    <use xlink:href="#DejaVuSans-4c" transform="translate(271.296875 0)"/>
    <use xlink:href="#DejaVuSans-51" transform="translate(299.078125 0)"/>
    <use xlink:href="#DejaVuSans-48" transform="translate(362.453125 0)"/>
    <use xlink:href="#DejaVuSans-3" transform="translate(423.984375 0)"/>
    <use xlink:href="#DejaVuSans-9" transform="translate(455.765625 0)"/>
    <use xlink:href="#DejaVuSans-3" transform="translate(533.75 0)"/>
    <use xlink:href="#DejaVuSans-4b" transform="translate(565.53125 0)"/>
    <use xlink:href="#DejaVuSans-48" transform="translate(628.90625 0)"/>
    <use xlink:href="#DejaVuSans-58" transform="translate(690.4375 0)"/>
    <use xlink:href="#DejaVuSans-55" transform="translate(753.8125 0)"/>
    <use xlink:href="#DejaVuSans-4c" transform="translate(794.921875 0)"/>
    <use xlink:href="#DejaVuSans-56" transform="translate(822.703125 0)"/>
    <use xlink:href="#DejaVuSans-57" transform="translate(874.796875 0)"/>
    <use xlink:href="#DejaVuSans-4c" transform="translate(914 0)"/>
    <use xlink:href="#DejaVuSans-46" transform="translate(941.78125 0)"/>
    <use xlink:href="#DejaVuSans-3" transform="translate(996.765625 0)"/>
    <use xlink:href="#DejaVuSans-49" transform="translate(1028.546875 0)"/>
    <use xlink:href="#DejaVuSans-55" transform="translate(1063.75 0)"/>
    <use xlink:href="#DejaVuSans-52" transform="translate(1102.65625 0)"/>
    <use xlink:href="#DejaVuSans-50" transform="translate(1163.84375 0)"/>
    <use xlink:href="#DejaVuSans-3" transform="translate(1261.25 0)"/>
    <use xlink:href="#DejaVuSans-45" transform="translate(1293.03125 0)"/>
    <use xlink:href="#DejaVuSans-48" transform="translate(1356.515625 0)"/>
    <use xlink:href="#DejaVuSans-51" transform="translate(1418.046875 0)"/>
    <use xlink:href="#DejaVuSans-46" transform="translate(1481.421875 0)"/>
    <use xlink:href="#DejaVuSans-4b" transform="translate(1536.40625 0)"/>
    <use xlink:href="#DejaVuSans-50" transform="translate(1599.78125 0)"/>
    <use xlink:href="#DejaVuSans-44" transform="translate(1697.1875 0)"/>
    <use xlink:href="#DejaVuSans-55" transform="translate(1758.46875 0)"/>
    <use xlink:href="#DejaVuSans-4e" transform="translate(1799.578125 0)"/>
    <use xlink:href="#DejaVuSans-42" transform="translate(1857.484375 0)"/>
    <use xlink:href="#DejaVuSans-51" transform="translate(1907.484375 0)"/>
    <use xlink:href="#DejaVuSans-48" transform="translate(1970.859375 0)"/>
    <use xlink:href="#DejaVuSans-44" transform="translate(2032.390625 0)"/>
    <use xlink:href="#DejaVuSans-55" transform="translate(2093.671875 0)"/>
    <use xlink:href="#DejaVuSans-48" transform="translate(2132.578125 0)"/>
    <use xlink:href="#DejaVuSans-56" transform="translate(2194.109375 0)"/>
    <use xlink:href="#DejaVuSans-57" transform="translate(2246.203125 0)"/>
    <use xlink:href="#DejaVuSans-42" transform="translate(2285.40625 0)"/>
    <use xlink:href="#DejaVuSans-45" transform="translate(2335.40625 0)"/>
    <use xlink:href="#DejaVuSans-44" transform="translate(2398.890625 0)"/>
    <use xlink:href="#DejaVuSans-56" transform="translate(2460.171875 0)"/>
    <use xlink:href="#DejaVuSans-48" transform="translate(2512.265625 0)"/>
    <use xlink:href="#DejaVuSans-4f" transform="translate(2573.796875 0)"/>
    <use xlink:href="#DejaVuSans-4c" transform="translate(2601.578125 0)"/>
    <use xlink:href="#DejaVuSans-51" transform="translate(2629.359375 0)"/>
    <use xlink:href="#DejaVuSans-48" transform="translate(2692.734375 0)"/>
    <use xlink:href="#DejaVuSans-11" transform="translate(2754.265625 0)"/>
    <use xlink:href="#DejaVuSans-53" transform="translate(2786.046875 0)"/>
    <use xlink:href="#DejaVuSans-5c" transform="translate(2849.53125 0)"/>
    <use xlink:href="#DejaVuSans-11" transform="translate(2894.46875 0)"/>
    <use xlink:href="#DejaVuSans-3" transform="translate(2926.25 0)"/>
    <use xlink:href="#DejaVuSans-3" transform="translate(2958.03125 0)"/>
    <use xlink:href="#DejaVuSans-35" transform="translate(2989.8125 0)"/>
    <use xlink:href="#DejaVuSans-2f" transform="translate(3059.296875 0)"/>
    <use xlink:href="#DejaVuSans-10" transform="translate(3113.265625 0)"/>
    <use xlink:href="#DejaVuSans-57" transform="translate(3149.34375 0)"/>
    <use xlink:href="#DejaVuSans-55" transform="translate(3188.546875 0)"/>
    <use xlink:href="#DejaVuSans-44" transform="translate(3229.65625 0)"/>
    <use xlink:href="#DejaVuSans-4c" transform="translate(3290.9375 0)"/>
    <use xlink:href="#DejaVuSans-51" transform="translate(3318.71875 0)"/>
    <use xlink:href="#DejaVuSans-48" transform="translate(3382.09375 0)"/>
    <use xlink:href="#DejaVuSans-47" transform="translate(3443.625 0)"/>
    <use xlink:href="#DejaVuSans-3" transform="translate(3507.109375 0)"/>
    <use xlink:href="#DejaVuSans-50" transform="translate(3538.890625 0)"/>
    <use xlink:href="#DejaVuSans-52" transform="translate(3636.296875 0)"/>
    <use xlink:href="#DejaVuSans-47" transform="translate(3697.484375 0)"/>
    <use xlink:href="#DejaVuSans-48" transform="translate(3760.96875 0)"/>
    <use xlink:href="#DejaVuSans-4f" transform="translate(3822.5 0)"/>
    <use xlink:href="#DejaVuSans-3" transform="translate(3850.28125 0)"/>
    <use xlink:href="#DejaVuSans-46" transform="translate(3882.0625 0)"/>
    <use xlink:href="#DejaVuSans-58" transform="translate(3937.046875 0)"/>
    <use xlink:href="#DejaVuSans-55" transform="translate(4000.421875 0)"/>
    <use xlink:href="#DejaVuSans-55" transform="translate(4039.78125 0)"/>
    <use xlink:href="#DejaVuSans-48" transform="translate(4078.6875 0)"/>
    <use xlink:href="#DejaVuSans-51" transform="translate(4140.21875 0)"/>
    <use xlink:href="#DejaVuSans-57" transform="translate(4203.59375 0)"/>
    <use xlink:href="#DejaVuSans-4f" transform="translate(4242.796875 0)"/>
    <use xlink:href="#DejaVuSans-5c" transform="translate(4270.578125 0)"/>
    <use xlink:href="#DejaVuSans-3" transform="translate(4329.765625 0)"/>
    <use xlink:href="#DejaVuSans-50" transform="translate(4361.546875 0)"/>
    <use xlink:href="#DejaVuSans-44" transform="translate(4458.953125 0)"/>
    <use xlink:href="#DejaVuSans-57" transform="translate(4520.234375 0)"/>
    <use xlink:href="#DejaVuSans-46" transform="translate(4559.4375 0)"/>
    <use xlink:href="#DejaVuSans-4b" transform="translate(4614.421875 0)"/>
    <use xlink:href="#DejaVuSans-48" transform="translate(4677.796875 0)"/>
    <use xlink:href="#DejaVuSans-56" transform="translate(4739.328125 0)"/>
    <use xlink:href="#DejaVuSans-3" transform="translate(4791.421875 0)"/>
    <use xlink:href="#DejaVuSans-57" transform="translate(4823.203125 0)"/>
    <use xlink:href="#DejaVuSans-4b" transform="translate(4862.40625 0)"/>
    <use xlink:href="#DejaVuSans-48" transform="translate(4925.78125 0)"/>
    <use xlink:href="#DejaVuSans-3" transform="translate(4987.3125 0)"/>
    <use xlink:href="#DejaVuSans-4b" transform="translate(5019.09375 0)"/>
    <use xlink:href="#DejaVuSans-48" transform="translate(5082.46875 0)"/>
    <use xlink:href="#DejaVuSans-58" transform="translate(5144 0)"/>
    <use xlink:href="#DejaVuSans-55" transform="translate(5207.375 0)"/>
    <use xlink:href="#DejaVuSans-4c" transform="translate(5248.484375 0)"/>
    <use xlink:href="#DejaVuSans-56" transform="translate(5276.265625 0)"/>
    <use xlink:href="#DejaVuSans-57" transform="translate(5328.359375 0)"/>
    <use xlink:href="#DejaVuSans-4c" transform="translate(5367.5625 0)"/>
    <use xlink:href="#DejaVuSans-46" transform="translate(5395.34375 0)"/>
    <use xlink:href="#DejaVuSans-3" transform="translate(5450.328125 0)"/>
    <use xlink:href="#DejaVuSans-b" transform="translate(5482.109375 0)"/>
    <use xlink:href="#DejaVuSans-5a" transform="translate(5521.125 0)"/>
    <use xlink:href="#DejaVuSans-4c" transform="translate(5602.90625 0)"/>
    <use xlink:href="#DejaVuSans-57" transform="translate(5630.6875 0)"/>
    <use xlink:href="#DejaVuSans-4b" transform="translate(5669.890625 0)"/>
    <use xlink:href="#DejaVuSans-4c" transform="translate(5733.265625 0)"/>
    <use xlink:href="#DejaVuSans-51" transform="translate(5761.046875 0)"/>
    <use xlink:href="#DejaVuSans-3" transform="translate(5824.421875 0)"/>
    <use xlink:href="#DejaVuSans-51" transform="translate(5856.203125 0)"/>
    <use xlink:href="#DejaVuSans-52" transform="translate(5919.578125 0)"/>
    <use xlink:href="#DejaVuSans-4c" transform="translate(5980.765625 0)"/>
    <use xlink:href="#DejaVuSans-56" transform="translate(6008.546875 0)"/>
    <use xlink:href="#DejaVuSans-48" transform="translate(6060.640625 0)"/>
    <use xlink:href="#DejaVuSans-c" transform="translate(6122.171875 0)"/>
    <use xlink:href="#DejaVuSans-11" transform="translate(6161.1875 0)"/>
   </g>
  </g>
 </g>
 <defs>
  <clipPath id="p16e221a68b">
   <rect x="73.44" y="74.88" width="507.96" height="247.104"/>
  </clipPath>
 </defs>
</svg>
